solid csg_export
	facet normal -0.95694034290854 -0.29028465359725 -0
		outer loop
			vertex -2.9423558712006 -0.58527094125748 145.99949645996
			vertex -2.9423558712006 -0.58527094125748 56.674499511719
			vertex -2.7716386318207 -1.1480503082275 56.674499511719
		endloop
	endfacet
	facet normal -0.99518473124162 -0.098017093935455 -0
		outer loop
			vertex -3 0 145.99949645996
			vertex -3 0 56.674499511719
			vertex -2.9423558712006 -0.58527094125748 56.674499511719
		endloop
	endfacet
	facet normal -0.098017093935455 -0.99518473124162 -0
		outer loop
			vertex -0.58527094125748 -2.9423558712006 145.99949645996
			vertex -0.58527094125748 -2.9423558712006 56.674499511719
			vertex 0 -3 56.674499511719
		endloop
	endfacet
	facet normal -0.77301027609239 -0.63439350016813 -0
		outer loop
			vertex -2.4944088459015 -1.6667107343674 145.99949645996
			vertex -2.4944088459015 -1.6667107343674 56.674499511719
			vertex -2.1213202476501 -2.1213202476501 56.674499511719
		endloop
	endfacet
	facet normal -0.63439350016813 -0.77301027609239 -0
		outer loop
			vertex -2.1213202476501 -2.1213202476501 145.99949645996
			vertex -2.1213202476501 -2.1213202476501 56.674499511719
			vertex -1.6667107343674 -2.4944088459015 56.674499511719
		endloop
	endfacet
	facet normal -0.47139675318634 -0.88192125560357 -0
		outer loop
			vertex -1.6667107343674 -2.4944088459015 145.99949645996
			vertex -1.6667107343674 -2.4944088459015 56.674499511719
			vertex -1.1480503082275 -2.7716386318207 56.674499511719
		endloop
	endfacet
	facet normal -0.88192125560357 -0.47139675318634 -0
		outer loop
			vertex -2.7716386318207 -1.1480503082275 145.99949645996
			vertex -2.7716386318207 -1.1480503082275 56.674499511719
			vertex -2.4944088459015 -1.6667107343674 56.674499511719
		endloop
	endfacet
	facet normal -0.29028465359725 -0.95694034290854 -0
		outer loop
			vertex -1.1480503082275 -2.7716386318207 145.99949645996
			vertex -1.1480503082275 -2.7716386318207 56.674499511719
			vertex -0.58527094125748 -2.9423558712006 56.674499511719
		endloop
	endfacet
	facet normal -0.99518473124162 -0.098017093935455 -0
		outer loop
			vertex -2.9423558712006 -0.58527094125748 145.99949645996
			vertex -3 0 145.99949645996
			vertex -2.9423558712006 -0.58527094125748 56.674499511719
		endloop
	endfacet
	facet normal -0.29028465359725 -0.95694034290854 0
		outer loop
			vertex -1.1480503082275 -2.7716386318207 145.99949645996
			vertex -0.58527094125748 -2.9423558712006 56.674499511719
			vertex -0.58527094125748 -2.9423558712006 145.99949645996
		endloop
	endfacet
	facet normal -0.098017093935455 -0.99518473124162 0
		outer loop
			vertex -0.58527094125748 -2.9423558712006 145.99949645996
			vertex 0 -3 56.674499511719
			vertex 0 -3 145.99949645996
		endloop
	endfacet
	facet normal -0.88192125560357 -0.47139675318634 -0
		outer loop
			vertex -2.4944088459015 -1.6667107343674 145.99949645996
			vertex -2.7716386318207 -1.1480503082275 145.99949645996
			vertex -2.4944088459015 -1.6667107343674 56.674499511719
		endloop
	endfacet
	facet normal -0.77301027609239 -0.63439350016813 0
		outer loop
			vertex -2.4944088459015 -1.6667107343674 145.99949645996
			vertex -2.1213202476501 -2.1213202476501 56.674499511719
			vertex -2.1213202476501 -2.1213202476501 145.99949645996
		endloop
	endfacet
	facet normal -0.63439350016813 -0.77301027609239 -0
		outer loop
			vertex -1.6667107343674 -2.4944088459015 145.99949645996
			vertex -2.1213202476501 -2.1213202476501 145.99949645996
			vertex -1.6667107343674 -2.4944088459015 56.674499511719
		endloop
	endfacet
	facet normal -0.95694034290854 -0.29028465359725 -0
		outer loop
			vertex -2.7716386318207 -1.1480503082275 145.99949645996
			vertex -2.9423558712006 -0.58527094125748 145.99949645996
			vertex -2.7716386318207 -1.1480503082275 56.674499511719
		endloop
	endfacet
	facet normal -0.47139675318634 -0.88192125560357 0
		outer loop
			vertex -1.6667107343674 -2.4944088459015 145.99949645996
			vertex -1.1480503082275 -2.7716386318207 56.674499511719
			vertex -1.1480503082275 -2.7716386318207 145.99949645996
		endloop
	endfacet
	facet normal 0 -0 1
		outer loop
			vertex -2.4944088459015 -1.6667107343674 145.99949645996
			vertex -2.4944088459015 1.6667107343674 145.99949645996
			vertex -2.7716386318207 -1.1480503082275 145.99949645996
		endloop
	endfacet
	facet normal 0 -0 1
		outer loop
			vertex -2.7716386318207 -1.1480503082275 145.99949645996
			vertex -2.7716386318207 1.1480503082275 145.99949645996
			vertex -2.9423558712006 -0.58527094125748 145.99949645996
		endloop
	endfacet
	facet normal -0 0 1
		outer loop
			vertex -2.4944088459015 -1.6667107343674 145.99949645996
			vertex -2.1213202476501 -2.1213202476501 145.99949645996
			vertex -2.1213202476501 2.1213202476501 145.99949645996
		endloop
	endfacet
	facet normal 0 -0 1
		outer loop
			vertex -1.6667107343674 -2.4944088459015 145.99949645996
			vertex -1.6667107343674 2.4944088459015 145.99949645996
			vertex -2.1213202476501 -2.1213202476501 145.99949645996
		endloop
	endfacet
	facet normal -0 0 1
		outer loop
			vertex -1.6667107343674 -2.4944088459015 145.99949645996
			vertex -1.1480503082275 -2.7716386318207 145.99949645996
			vertex -1.1480503082275 2.7716386318207 145.99949645996
		endloop
	endfacet
	facet normal -0 0 1
		outer loop
			vertex -1.1480503082275 -2.7716386318207 145.99949645996
			vertex -0.58527094125748 -2.9423558712006 145.99949645996
			vertex -0.58527094125748 2.9423558712006 145.99949645996
		endloop
	endfacet
	facet normal -0 0 1
		outer loop
			vertex -0.58527094125748 -2.9423558712006 145.99949645996
			vertex 0 -3 145.99949645996
			vertex 0 3 145.99949645996
		endloop
	endfacet
	facet normal -0.99518473124162 0.098017093935455 0
		outer loop
			vertex -2.9423558712006 0.58527094125748 145.99949645996
			vertex -2.9423558712006 0.58527094125748 56.674499511719
			vertex -3 0 56.674499511719
		endloop
	endfacet
	facet normal -0.95694034290854 0.29028465359725 0
		outer loop
			vertex -2.7716386318207 1.1480503082275 145.99949645996
			vertex -2.7716386318207 1.1480503082275 56.674499511719
			vertex -2.9423558712006 0.58527094125748 56.674499511719
		endloop
	endfacet
	facet normal -0.88192125560357 0.47139675318634 0
		outer loop
			vertex -2.4944088459015 1.6667107343674 145.99949645996
			vertex -2.4944088459015 1.6667107343674 56.674499511719
			vertex -2.7716386318207 1.1480503082275 56.674499511719
		endloop
	endfacet
	facet normal -0.77301027609239 0.63439350016813 0
		outer loop
			vertex -2.1213202476501 2.1213202476501 145.99949645996
			vertex -2.1213202476501 2.1213202476501 56.674499511719
			vertex -2.4944088459015 1.6667107343674 56.674499511719
		endloop
	endfacet
	facet normal -0.63439350016813 0.77301027609239 0
		outer loop
			vertex -1.6667107343674 2.4944088459015 145.99949645996
			vertex -1.6667107343674 2.4944088459015 56.674499511719
			vertex -2.1213202476501 2.1213202476501 56.674499511719
		endloop
	endfacet
	facet normal -0.47139675318634 0.88192125560357 0
		outer loop
			vertex -1.1480503082275 2.7716386318207 145.99949645996
			vertex -1.1480503082275 2.7716386318207 56.674499511719
			vertex -1.6667107343674 2.4944088459015 56.674499511719
		endloop
	endfacet
	facet normal -0.29028465359725 0.95694034290854 0
		outer loop
			vertex -0.58527094125748 2.9423558712006 145.99949645996
			vertex -0.58527094125748 2.9423558712006 56.674499511719
			vertex -1.1480503082275 2.7716386318207 56.674499511719
		endloop
	endfacet
	facet normal -0.098017093935455 0.99518473124162 0
		outer loop
			vertex 0 3 145.99949645996
			vertex 0 3 56.674499511719
			vertex -0.58527094125748 2.9423558712006 56.674499511719
		endloop
	endfacet
	facet normal -0.99518473124162 0.098017093935455 0
		outer loop
			vertex -3 0 145.99949645996
			vertex -2.9423558712006 0.58527094125748 145.99949645996
			vertex -3 0 56.674499511719
		endloop
	endfacet
	facet normal -0.95694034290854 0.29028465359725 0
		outer loop
			vertex -2.9423558712006 0.58527094125748 145.99949645996
			vertex -2.7716386318207 1.1480503082275 145.99949645996
			vertex -2.9423558712006 0.58527094125748 56.674499511719
		endloop
	endfacet
	facet normal 0 -0 1
		outer loop
			vertex -2.9423558712006 -0.58527094125748 145.99949645996
			vertex -2.9423558712006 0.58527094125748 145.99949645996
			vertex -3 0 145.99949645996
		endloop
	endfacet
	facet normal 0 0 1
		outer loop
			vertex -2.9423558712006 -0.58527094125748 145.99949645996
			vertex -2.7716386318207 1.1480503082275 145.99949645996
			vertex -2.9423558712006 0.58527094125748 145.99949645996
		endloop
	endfacet
	facet normal -0.88192125560357 0.47139675318634 0
		outer loop
			vertex -2.7716386318207 1.1480503082275 145.99949645996
			vertex -2.4944088459015 1.6667107343674 145.99949645996
			vertex -2.7716386318207 1.1480503082275 56.674499511719
		endloop
	endfacet
	facet normal -0.77301027609239 0.63439350016813 0
		outer loop
			vertex -2.4944088459015 1.6667107343674 145.99949645996
			vertex -2.1213202476501 2.1213202476501 145.99949645996
			vertex -2.4944088459015 1.6667107343674 56.674499511719
		endloop
	endfacet
	facet normal -0.63439350016813 0.77301027609239 0
		outer loop
			vertex -2.1213202476501 2.1213202476501 145.99949645996
			vertex -1.6667107343674 2.4944088459015 145.99949645996
			vertex -2.1213202476501 2.1213202476501 56.674499511719
		endloop
	endfacet
	facet normal -0.47139675318634 0.88192125560357 0
		outer loop
			vertex -1.6667107343674 2.4944088459015 145.99949645996
			vertex -1.1480503082275 2.7716386318207 145.99949645996
			vertex -1.6667107343674 2.4944088459015 56.674499511719
		endloop
	endfacet
	facet normal -0.29028465359725 0.95694034290854 0
		outer loop
			vertex -1.1480503082275 2.7716386318207 145.99949645996
			vertex -0.58527094125748 2.9423558712006 145.99949645996
			vertex -1.1480503082275 2.7716386318207 56.674499511719
		endloop
	endfacet
	facet normal 0 0 1
		outer loop
			vertex -2.7716386318207 -1.1480503082275 145.99949645996
			vertex -2.4944088459015 1.6667107343674 145.99949645996
			vertex -2.7716386318207 1.1480503082275 145.99949645996
		endloop
	endfacet
	facet normal 0 0 1
		outer loop
			vertex -2.4944088459015 -1.6667107343674 145.99949645996
			vertex -2.1213202476501 2.1213202476501 145.99949645996
			vertex -2.4944088459015 1.6667107343674 145.99949645996
		endloop
	endfacet
	facet normal 0 0 1
		outer loop
			vertex -2.1213202476501 -2.1213202476501 145.99949645996
			vertex -1.6667107343674 2.4944088459015 145.99949645996
			vertex -2.1213202476501 2.1213202476501 145.99949645996
		endloop
	endfacet
	facet normal 0 0 1
		outer loop
			vertex -1.6667107343674 -2.4944088459015 145.99949645996
			vertex -1.1480503082275 2.7716386318207 145.99949645996
			vertex -1.6667107343674 2.4944088459015 145.99949645996
		endloop
	endfacet
	facet normal 0 0 1
		outer loop
			vertex -1.1480503082275 -2.7716386318207 145.99949645996
			vertex -0.58527094125748 2.9423558712006 145.99949645996
			vertex -1.1480503082275 2.7716386318207 145.99949645996
		endloop
	endfacet
	facet normal 0 0 1
		outer loop
			vertex -0.58527094125748 -2.9423558712006 145.99949645996
			vertex 0 3 145.99949645996
			vertex -0.58527094125748 2.9423558712006 145.99949645996
		endloop
	endfacet
	facet normal -0.098017093935455 0.99518473124162 0
		outer loop
			vertex -0.58527094125748 2.9423558712006 145.99949645996
			vertex 0 3 145.99949645996
			vertex -0.58527094125748 2.9423558712006 56.674499511719
		endloop
	endfacet
	facet normal 0.098017093935455 -0.99518473124162 0
		outer loop
			vertex 0 -3 145.99949645996
			vertex 0 -3 56.674499511719
			vertex 0.58527094125748 -2.9423558712006 56.674499511719
		endloop
	endfacet
	facet normal 0.29028465359725 -0.95694034290854 0
		outer loop
			vertex 0.58527094125748 -2.9423558712006 145.99949645996
			vertex 0.58527094125748 -2.9423558712006 56.674499511719
			vertex 1.1480503082275 -2.7716386318207 56.674499511719
		endloop
	endfacet
	facet normal 0.47139675318634 -0.88192125560357 0
		outer loop
			vertex 1.1480503082275 -2.7716386318207 145.99949645996
			vertex 1.1480503082275 -2.7716386318207 56.674499511719
			vertex 1.6667107343674 -2.4944088459015 56.674499511719
		endloop
	endfacet
	facet normal 0.63439350016813 -0.77301027609239 0
		outer loop
			vertex 1.6667107343674 -2.4944088459015 145.99949645996
			vertex 1.6667107343674 -2.4944088459015 56.674499511719
			vertex 2.1213202476501 -2.1213202476501 56.674499511719
		endloop
	endfacet
	facet normal 0.77301027609239 -0.63439350016813 0
		outer loop
			vertex 2.1213202476501 -2.1213202476501 145.99949645996
			vertex 2.1213202476501 -2.1213202476501 56.674499511719
			vertex 2.4944088459015 -1.6667107343674 56.674499511719
		endloop
	endfacet
	facet normal 0.88192125560357 -0.47139675318634 0
		outer loop
			vertex 2.4944088459015 -1.6667107343674 145.99949645996
			vertex 2.4944088459015 -1.6667107343674 56.674499511719
			vertex 2.7716386318207 -1.1480503082275 56.674499511719
		endloop
	endfacet
	facet normal 0.95694034290854 -0.29028465359725 0
		outer loop
			vertex 2.7716386318207 -1.1480503082275 145.99949645996
			vertex 2.7716386318207 -1.1480503082275 56.674499511719
			vertex 2.9423558712006 -0.58527094125748 56.674499511719
		endloop
	endfacet
	facet normal 0.99518473124162 -0.098017093935455 0
		outer loop
			vertex 2.9423558712006 -0.58527094125748 145.99949645996
			vertex 2.9423558712006 -0.58527094125748 56.674499511719
			vertex 3 0 56.674499511719
		endloop
	endfacet
	facet normal 0.098017093935455 -0.99518473124162 0
		outer loop
			vertex 0 -3 145.99949645996
			vertex 0.58527094125748 -2.9423558712006 56.674499511719
			vertex 0.58527094125748 -2.9423558712006 145.99949645996
		endloop
	endfacet
	facet normal 0.29028465359725 -0.95694034290854 0
		outer loop
			vertex 0.58527094125748 -2.9423558712006 145.99949645996
			vertex 1.1480503082275 -2.7716386318207 56.674499511719
			vertex 1.1480503082275 -2.7716386318207 145.99949645996
		endloop
	endfacet
	facet normal 0.47139675318634 -0.88192125560357 0
		outer loop
			vertex 1.1480503082275 -2.7716386318207 145.99949645996
			vertex 1.6667107343674 -2.4944088459015 56.674499511719
			vertex 1.6667107343674 -2.4944088459015 145.99949645996
		endloop
	endfacet
	facet normal 0.63439350016813 -0.77301027609239 0
		outer loop
			vertex 1.6667107343674 -2.4944088459015 145.99949645996
			vertex 2.1213202476501 -2.1213202476501 56.674499511719
			vertex 2.1213202476501 -2.1213202476501 145.99949645996
		endloop
	endfacet
	facet normal 0.77301027609239 -0.63439350016813 0
		outer loop
			vertex 2.1213202476501 -2.1213202476501 145.99949645996
			vertex 2.4944088459015 -1.6667107343674 56.674499511719
			vertex 2.4944088459015 -1.6667107343674 145.99949645996
		endloop
	endfacet
	facet normal 0.88192125560357 -0.47139675318634 0
		outer loop
			vertex 2.4944088459015 -1.6667107343674 145.99949645996
			vertex 2.7716386318207 -1.1480503082275 56.674499511719
			vertex 2.7716386318207 -1.1480503082275 145.99949645996
		endloop
	endfacet
	facet normal 0 0 1
		outer loop
			vertex 0 -3 145.99949645996
			vertex 0.58527094125748 -2.9423558712006 145.99949645996
			vertex 0.58527094125748 2.9423558712006 145.99949645996
		endloop
	endfacet
	facet normal 0 0 1
		outer loop
			vertex 0.58527094125748 -2.9423558712006 145.99949645996
			vertex 1.1480503082275 -2.7716386318207 145.99949645996
			vertex 1.1480503082275 2.7716386318207 145.99949645996
		endloop
	endfacet
	facet normal 0 0 1
		outer loop
			vertex 1.1480503082275 -2.7716386318207 145.99949645996
			vertex 1.6667107343674 -2.4944088459015 145.99949645996
			vertex 1.6667107343674 2.4944088459015 145.99949645996
		endloop
	endfacet
	facet normal 0 0 1
		outer loop
			vertex 1.6667107343674 -2.4944088459015 145.99949645996
			vertex 2.1213202476501 -2.1213202476501 145.99949645996
			vertex 2.1213202476501 2.1213202476501 145.99949645996
		endloop
	endfacet
	facet normal 0 0 1
		outer loop
			vertex 2.1213202476501 -2.1213202476501 145.99949645996
			vertex 2.4944088459015 -1.6667107343674 145.99949645996
			vertex 2.4944088459015 1.6667107343674 145.99949645996
		endloop
	endfacet
	facet normal 0 0 1
		outer loop
			vertex 2.4944088459015 -1.6667107343674 145.99949645996
			vertex 2.7716386318207 -1.1480503082275 145.99949645996
			vertex 2.7716386318207 1.1480503082275 145.99949645996
		endloop
	endfacet
	facet normal 0.95694034290854 -0.29028465359725 0
		outer loop
			vertex 2.7716386318207 -1.1480503082275 145.99949645996
			vertex 2.9423558712006 -0.58527094125748 56.674499511719
			vertex 2.9423558712006 -0.58527094125748 145.99949645996
		endloop
	endfacet
	facet normal 0.99518473124162 -0.098017093935455 0
		outer loop
			vertex 2.9423558712006 -0.58527094125748 145.99949645996
			vertex 3 0 56.674499511719
			vertex 3 0 145.99949645996
		endloop
	endfacet
	facet normal 0 0 1
		outer loop
			vertex 2.7716386318207 -1.1480503082275 145.99949645996
			vertex 2.9423558712006 -0.58527094125748 145.99949645996
			vertex 2.9423558712006 0.58527094125748 145.99949645996
		endloop
	endfacet
	facet normal 0.29028465359725 0.95694034290854 0
		outer loop
			vertex 1.1480503082275 2.7716386318207 145.99949645996
			vertex 1.1480503082275 2.7716386318207 56.674499511719
			vertex 0.58527094125748 2.9423558712006 56.674499511719
		endloop
	endfacet
	facet normal 0.88192125560357 0.47139675318634 0
		outer loop
			vertex 2.7716386318207 1.1480503082275 145.99949645996
			vertex 2.7716386318207 1.1480503082275 56.674499511719
			vertex 2.4944088459015 1.6667107343674 56.674499511719
		endloop
	endfacet
	facet normal 0.47139675318634 0.88192125560357 0
		outer loop
			vertex 1.6667107343674 2.4944088459015 145.99949645996
			vertex 1.6667107343674 2.4944088459015 56.674499511719
			vertex 1.1480503082275 2.7716386318207 56.674499511719
		endloop
	endfacet
	facet normal 0.63439350016813 0.77301027609239 0
		outer loop
			vertex 2.1213202476501 2.1213202476501 145.99949645996
			vertex 2.1213202476501 2.1213202476501 56.674499511719
			vertex 1.6667107343674 2.4944088459015 56.674499511719
		endloop
	endfacet
	facet normal 0.77301027609239 0.63439350016813 0
		outer loop
			vertex 2.4944088459015 1.6667107343674 145.99949645996
			vertex 2.4944088459015 1.6667107343674 56.674499511719
			vertex 2.1213202476501 2.1213202476501 56.674499511719
		endloop
	endfacet
	facet normal 0.098017093935455 0.99518473124162 0
		outer loop
			vertex 0.58527094125748 2.9423558712006 145.99949645996
			vertex 0.58527094125748 2.9423558712006 56.674499511719
			vertex 0 3 56.674499511719
		endloop
	endfacet
	facet normal 0.99518473124162 0.098017093935455 0
		outer loop
			vertex 3 0 145.99949645996
			vertex 3 0 56.674499511719
			vertex 2.9423558712006 0.58527094125748 56.674499511719
		endloop
	endfacet
	facet normal 0.95694034290854 0.29028465359725 0
		outer loop
			vertex 2.9423558712006 0.58527094125748 145.99949645996
			vertex 2.9423558712006 0.58527094125748 56.674499511719
			vertex 2.7716386318207 1.1480503082275 56.674499511719
		endloop
	endfacet
	facet normal 0.47139675318634 0.88192125560357 0
		outer loop
			vertex 1.1480503082275 2.7716386318207 145.99949645996
			vertex 1.6667107343674 2.4944088459015 145.99949645996
			vertex 1.1480503082275 2.7716386318207 56.674499511719
		endloop
	endfacet
	facet normal 0.95694034290854 0.29028465359725 0
		outer loop
			vertex 2.9423558712006 0.58527094125748 145.99949645996
			vertex 2.7716386318207 1.1480503082275 56.674499511719
			vertex 2.7716386318207 1.1480503082275 145.99949645996
		endloop
	endfacet
	facet normal 0.63439350016813 0.77301027609239 0
		outer loop
			vertex 2.1213202476501 2.1213202476501 145.99949645996
			vertex 1.6667107343674 2.4944088459015 56.674499511719
			vertex 1.6667107343674 2.4944088459015 145.99949645996
		endloop
	endfacet
	facet normal 0.77301027609239 0.63439350016813 0
		outer loop
			vertex 2.1213202476501 2.1213202476501 145.99949645996
			vertex 2.4944088459015 1.6667107343674 145.99949645996
			vertex 2.1213202476501 2.1213202476501 56.674499511719
		endloop
	endfacet
	facet normal 0.88192125560357 0.47139675318634 0
		outer loop
			vertex 2.7716386318207 1.1480503082275 145.99949645996
			vertex 2.4944088459015 1.6667107343674 56.674499511719
			vertex 2.4944088459015 1.6667107343674 145.99949645996
		endloop
	endfacet
	facet normal 0 0 1
		outer loop
			vertex 0 -3 145.99949645996
			vertex 0.58527094125748 2.9423558712006 145.99949645996
			vertex 0 3 145.99949645996
		endloop
	endfacet
	facet normal 0 0 1
		outer loop
			vertex 0.58527094125748 -2.9423558712006 145.99949645996
			vertex 1.1480503082275 2.7716386318207 145.99949645996
			vertex 0.58527094125748 2.9423558712006 145.99949645996
		endloop
	endfacet
	facet normal 0 0 1
		outer loop
			vertex 1.1480503082275 -2.7716386318207 145.99949645996
			vertex 1.6667107343674 2.4944088459015 145.99949645996
			vertex 1.1480503082275 2.7716386318207 145.99949645996
		endloop
	endfacet
	facet normal 0 0 1
		outer loop
			vertex 1.6667107343674 -2.4944088459015 145.99949645996
			vertex 2.1213202476501 2.1213202476501 145.99949645996
			vertex 1.6667107343674 2.4944088459015 145.99949645996
		endloop
	endfacet
	facet normal 0 0 1
		outer loop
			vertex 2.1213202476501 -2.1213202476501 145.99949645996
			vertex 2.4944088459015 1.6667107343674 145.99949645996
			vertex 2.1213202476501 2.1213202476501 145.99949645996
		endloop
	endfacet
	facet normal 0 0 1
		outer loop
			vertex 2.7716386318207 -1.1480503082275 145.99949645996
			vertex 2.9423558712006 0.58527094125748 145.99949645996
			vertex 2.7716386318207 1.1480503082275 145.99949645996
		endloop
	endfacet
	facet normal 0 0 1
		outer loop
			vertex 2.4944088459015 -1.6667107343674 145.99949645996
			vertex 2.7716386318207 1.1480503082275 145.99949645996
			vertex 2.4944088459015 1.6667107343674 145.99949645996
		endloop
	endfacet
	facet normal 0.098017093935455 0.99518473124162 0
		outer loop
			vertex 0 3 145.99949645996
			vertex 0.58527094125748 2.9423558712006 145.99949645996
			vertex 0 3 56.674499511719
		endloop
	endfacet
	facet normal 0.29028465359725 0.95694034290854 0
		outer loop
			vertex 0.58527094125748 2.9423558712006 145.99949645996
			vertex 1.1480503082275 2.7716386318207 145.99949645996
			vertex 0.58527094125748 2.9423558712006 56.674499511719
		endloop
	endfacet
	facet normal 0.99518473124162 0.098017093935455 0
		outer loop
			vertex 3 0 145.99949645996
			vertex 2.9423558712006 0.58527094125748 56.674499511719
			vertex 2.9423558712006 0.58527094125748 145.99949645996
		endloop
	endfacet
	facet normal 0 0 1
		outer loop
			vertex 2.9423558712006 -0.58527094125748 145.99949645996
			vertex 3 0 145.99949645996
			vertex 2.9423558712006 0.58527094125748 145.99949645996
		endloop
	endfacet
	facet normal -0.77301031857206 -0.63439344840652 0
		outer loop
			vertex -9.5535860061646 -6.3835020065308 -52.500499725342
			vertex -8.1246566772461 -8.1246566772461 -52.500499725342
			vertex -9.5535860061646 -6.3835020065308 56.674499511719
		endloop
	endfacet
	facet normal -0.63439344840652 -0.77301031857206 0
		outer loop
			vertex -6.3835020065308 -9.5535860061646 -52.500499725342
			vertex -8.1246566772461 -8.1246566772461 56.674499511719
			vertex -8.1246566772461 -8.1246566772461 -52.500499725342
		endloop
	endfacet
	facet normal -0.63439344840652 -0.77301031857206 0
		outer loop
			vertex -6.3835020065308 -9.5535860061646 -52.500499725342
			vertex -6.3835020065308 -9.5535860061646 56.674499511719
			vertex -8.1246566772461 -8.1246566772461 56.674499511719
		endloop
	endfacet
	facet normal -0.77301031857206 -0.63439344840652 0
		outer loop
			vertex -8.1246566772461 -8.1246566772461 -52.500499725342
			vertex -8.1246566772461 -8.1246566772461 56.674499511719
			vertex -9.5535860061646 -6.3835020065308 56.674499511719
		endloop
	endfacet
	facet normal -0.88192134422396 -0.47139658738922 0
		outer loop
			vertex -9.5535860061646 -6.3835020065308 -52.500499725342
			vertex -10.615375518799 -4.3970327377319 56.674499511719
			vertex -10.615375518799 -4.3970327377319 -52.500499725342
		endloop
	endfacet
	facet normal -0.95694025627548 -0.29028493918806 0
		outer loop
			vertex -10.615375518799 -4.3970327377319 -52.500499725342
			vertex -11.269223213196 -2.2415878772736 56.674499511719
			vertex -11.269223213196 -2.2415878772736 -52.500499725342
		endloop
	endfacet
	facet normal 0 0 -1
		outer loop
			vertex -10.615375518799 -4.3970327377319 -52.500499725342
			vertex -11.269223213196 -2.2415878772736 -52.500499725342
			vertex -10.615375518799 4.3970327377319 -52.500499725342
		endloop
	endfacet
	facet normal 0 0 -1
		outer loop
			vertex -9.5535860061646 -6.3835020065308 -52.500499725342
			vertex -10.615375518799 -4.3970327377319 -52.500499725342
			vertex -9.5535860061646 6.3835020065308 -52.500499725342
		endloop
	endfacet
	facet normal -0.99518475169724 -0.098016886245734 0
		outer loop
			vertex -11.269223213196 -2.2415878772736 -52.500499725342
			vertex -11.489999771118 0 56.674499511719
			vertex -11.489999771118 0 -52.500499725342
		endloop
	endfacet
	facet normal 0 0 -1
		outer loop
			vertex -9.5535860061646 -6.3835020065308 -52.500499725342
			vertex -8.1246566772461 8.1246566772461 -52.500499725342
			vertex -8.1246566772461 -8.1246566772461 -52.500499725342
		endloop
	endfacet
	facet normal 0 0 -1
		outer loop
			vertex -6.3835020065308 -9.5535860061646 -52.500499725342
			vertex -8.1246566772461 -8.1246566772461 -52.500499725342
			vertex -6.3835020065308 9.5535860061646 -52.500499725342
		endloop
	endfacet
	facet normal -0.95694025627548 -0.29028493918806 0
		outer loop
			vertex -10.615375518799 -4.3970327377319 -52.500499725342
			vertex -10.615375518799 -4.3970327377319 56.674499511719
			vertex -11.269223213196 -2.2415878772736 56.674499511719
		endloop
	endfacet
	facet normal -0.88192134422396 -0.47139658738922 0
		outer loop
			vertex -9.5535860061646 -6.3835020065308 -52.500499725342
			vertex -9.5535860061646 -6.3835020065308 56.674499511719
			vertex -10.615375518799 -4.3970327377319 56.674499511719
		endloop
	endfacet
	facet normal -0.99518475169724 -0.098016886245734 0
		outer loop
			vertex -11.269223213196 -2.2415878772736 -52.500499725342
			vertex -11.269223213196 -2.2415878772736 56.674499511719
			vertex -11.489999771118 0 56.674499511719
		endloop
	endfacet
	facet normal -0.47139658738922 -0.88192134422396 0
		outer loop
			vertex -6.3835020065308 -9.5535860061646 -52.500499725342
			vertex -4.3970327377319 -10.615375518799 -52.500499725342
			vertex -6.3835020065308 -9.5535860061646 56.674499511719
		endloop
	endfacet
	facet normal -0.29028493918806 -0.95694025627548 0
		outer loop
			vertex -4.3970327377319 -10.615375518799 -52.500499725342
			vertex -2.2415878772736 -11.269223213196 -52.500499725342
			vertex -4.3970327377319 -10.615375518799 56.674499511719
		endloop
	endfacet
	facet normal -0.098016886245734 -0.99518475169724 0
		outer loop
			vertex -2.2415878772736 -11.269223213196 -52.500499725342
			vertex 0 -11.489999771118 -52.500499725342
			vertex -2.2415878772736 -11.269223213196 56.674499511719
		endloop
	endfacet
	facet normal -0.47139658738922 -0.88192134422396 0
		outer loop
			vertex -4.3970327377319 -10.615375518799 -52.500499725342
			vertex -4.3970327377319 -10.615375518799 56.674499511719
			vertex -6.3835020065308 -9.5535860061646 56.674499511719
		endloop
	endfacet
	facet normal -0.29028493918806 -0.95694025627548 0
		outer loop
			vertex -2.2415878772736 -11.269223213196 -52.500499725342
			vertex -2.2415878772736 -11.269223213196 56.674499511719
			vertex -4.3970327377319 -10.615375518799 56.674499511719
		endloop
	endfacet
	facet normal -0.098016886245734 -0.99518475169724 0
		outer loop
			vertex -2.2415878772736 -11.269223213196 56.674499511719
			vertex 0 -11.489999771118 -52.500499725342
			vertex 0 -11.489999771118 56.674499511719
		endloop
	endfacet
	facet normal 0 0 -1
		outer loop
			vertex -6.3835020065308 -9.5535860061646 -52.500499725342
			vertex -4.3970327377319 10.615375518799 -52.500499725342
			vertex -4.3970327377319 -10.615375518799 -52.500499725342
		endloop
	endfacet
	facet normal 0 0 -1
		outer loop
			vertex -4.3970327377319 -10.615375518799 -52.500499725342
			vertex -2.2415878772736 11.269223213196 -52.500499725342
			vertex -2.2415878772736 -11.269223213196 -52.500499725342
		endloop
	endfacet
	facet normal 0 0 -1
		outer loop
			vertex -2.2415878772736 -11.269223213196 -52.500499725342
			vertex 0 11.489999771118 -52.500499725342
			vertex 0 -11.489999771118 -52.500499725342
		endloop
	endfacet
	facet normal 0 -0 1
		outer loop
			vertex -10.615375518799 -4.3970327377319 56.674499511719
			vertex -10.615375518799 4.3970327377319 56.674499511719
			vertex -11.269223213196 -2.2415878772736 56.674499511719
		endloop
	endfacet
	facet normal 0 -0 1
		outer loop
			vertex -9.5535860061646 -6.3835020065308 56.674499511719
			vertex -9.5535860061646 6.3835020065308 56.674499511719
			vertex -10.615375518799 -4.3970327377319 56.674499511719
		endloop
	endfacet
	facet normal -0 0 1
		outer loop
			vertex -9.5535860061646 -6.3835020065308 56.674499511719
			vertex -8.1246566772461 -8.1246566772461 56.674499511719
			vertex -8.1246566772461 8.1246566772461 56.674499511719
		endloop
	endfacet
	facet normal 0 -0 1
		outer loop
			vertex -6.3835020065308 -9.5535860061646 56.674499511719
			vertex -6.3835020065308 9.5535860061646 56.674499511719
			vertex -8.1246566772461 -8.1246566772461 56.674499511719
		endloop
	endfacet
	facet normal -0 0 1
		outer loop
			vertex -4.3970327377319 -10.615375518799 56.674499511719
			vertex -2.2415878772736 -11.269223213196 56.674499511719
			vertex -2.1213202476501 -2.1213202476501 56.674499511719
		endloop
	endfacet
	facet normal -0 0 1
		outer loop
			vertex -2.2415878772736 -11.269223213196 56.674499511719
			vertex 0 -11.489999771118 56.674499511719
			vertex 0 -3 56.674499511719
		endloop
	endfacet
	facet normal -0 0 1
		outer loop
			vertex -6.3835020065308 -9.5535860061646 56.674499511719
			vertex -4.3970327377319 -10.615375518799 56.674499511719
			vertex -4.3970327377319 10.615375518799 56.674499511719
		endloop
	endfacet
	facet normal 0 0 1
		outer loop
			vertex -4.3970327377319 -10.615375518799 56.674499511719
			vertex -2.1213202476501 -2.1213202476501 56.674499511719
			vertex -2.4944088459015 -1.6667107343674 56.674499511719
		endloop
	endfacet
	facet normal 0 0 1
		outer loop
			vertex -4.3970327377319 -10.615375518799 56.674499511719
			vertex -2.4944088459015 -1.6667107343674 56.674499511719
			vertex -2.7716386318207 -1.1480503082275 56.674499511719
		endloop
	endfacet
	facet normal 0 0 1
		outer loop
			vertex -4.3970327377319 -10.615375518799 56.674499511719
			vertex -2.7716386318207 -1.1480503082275 56.674499511719
			vertex -2.9423558712006 -0.58527094125748 56.674499511719
		endloop
	endfacet
	facet normal 0 0 1
		outer loop
			vertex -4.3970327377319 -10.615375518799 56.674499511719
			vertex -2.9423558712006 -0.58527094125748 56.674499511719
			vertex -3 0 56.674499511719
		endloop
	endfacet
	facet normal 0 0 1
		outer loop
			vertex -2.2415878772736 -11.269223213196 56.674499511719
			vertex -1.6667107343674 -2.4944088459015 56.674499511719
			vertex -2.1213202476501 -2.1213202476501 56.674499511719
		endloop
	endfacet
	facet normal 0 0 1
		outer loop
			vertex -2.2415878772736 -11.269223213196 56.674499511719
			vertex -1.1480503082275 -2.7716386318207 56.674499511719
			vertex -1.6667107343674 -2.4944088459015 56.674499511719
		endloop
	endfacet
	facet normal 0 0 1
		outer loop
			vertex -2.2415878772736 -11.269223213196 56.674499511719
			vertex -0.58527094125748 -2.9423558712006 56.674499511719
			vertex -1.1480503082275 -2.7716386318207 56.674499511719
		endloop
	endfacet
	facet normal 0 0 1
		outer loop
			vertex -2.2415878772736 -11.269223213196 56.674499511719
			vertex 0 -3 56.674499511719
			vertex -0.58527094125748 -2.9423558712006 56.674499511719
		endloop
	endfacet
	facet normal 0 0 -1
		outer loop
			vertex -11.269223213196 -2.2415878772736 -52.500499725342
			vertex -11.489999771118 0 -52.500499725342
			vertex -11.269223213196 2.2415878772736 -52.500499725342
		endloop
	endfacet
	facet normal 0 0 -1
		outer loop
			vertex -11.269223213196 -2.2415878772736 -52.500499725342
			vertex -11.269223213196 2.2415878772736 -52.500499725342
			vertex -10.615375518799 4.3970327377319 -52.500499725342
		endloop
	endfacet
	facet normal 0 0 -1
		outer loop
			vertex -10.615375518799 -4.3970327377319 -52.500499725342
			vertex -10.615375518799 4.3970327377319 -52.500499725342
			vertex -9.5535860061646 6.3835020065308 -52.500499725342
		endloop
	endfacet
	facet normal 0 0 -1
		outer loop
			vertex -9.5535860061646 -6.3835020065308 -52.500499725342
			vertex -9.5535860061646 6.3835020065308 -52.500499725342
			vertex -8.1246566772461 8.1246566772461 -52.500499725342
		endloop
	endfacet
	facet normal -0.99518475169724 0.098016886245734 0
		outer loop
			vertex -11.489999771118 0 -52.500499725342
			vertex -11.269223213196 2.2415878772736 56.674499511719
			vertex -11.269223213196 2.2415878772736 -52.500499725342
		endloop
	endfacet
	facet normal -0.95694025627548 0.29028493918806 0
		outer loop
			vertex -11.269223213196 2.2415878772736 -52.500499725342
			vertex -10.615375518799 4.3970327377319 56.674499511719
			vertex -10.615375518799 4.3970327377319 -52.500499725342
		endloop
	endfacet
	facet normal -0.88192134422396 0.47139658738922 0
		outer loop
			vertex -10.615375518799 4.3970327377319 -52.500499725342
			vertex -9.5535860061646 6.3835020065308 56.674499511719
			vertex -9.5535860061646 6.3835020065308 -52.500499725342
		endloop
	endfacet
	facet normal 0 0 -1
		outer loop
			vertex -8.1246566772461 -8.1246566772461 -52.500499725342
			vertex -8.1246566772461 8.1246566772461 -52.500499725342
			vertex -6.3835020065308 9.5535860061646 -52.500499725342
		endloop
	endfacet
	facet normal -0.99518475169724 0.098016886245734 0
		outer loop
			vertex -11.489999771118 0 -52.500499725342
			vertex -11.489999771118 0 56.674499511719
			vertex -11.269223213196 2.2415878772736 56.674499511719
		endloop
	endfacet
	facet normal -0.95694025627548 0.29028493918806 0
		outer loop
			vertex -11.269223213196 2.2415878772736 -52.500499725342
			vertex -11.269223213196 2.2415878772736 56.674499511719
			vertex -10.615375518799 4.3970327377319 56.674499511719
		endloop
	endfacet
	facet normal -0.88192134422396 0.47139658738922 0
		outer loop
			vertex -10.615375518799 4.3970327377319 -52.500499725342
			vertex -10.615375518799 4.3970327377319 56.674499511719
			vertex -9.5535860061646 6.3835020065308 56.674499511719
		endloop
	endfacet
	facet normal -0.77301031857206 0.63439344840652 0
		outer loop
			vertex -9.5535860061646 6.3835020065308 -52.500499725342
			vertex -8.1246566772461 8.1246566772461 56.674499511719
			vertex -8.1246566772461 8.1246566772461 -52.500499725342
		endloop
	endfacet
	facet normal -0.63439344840652 0.77301031857206 0
		outer loop
			vertex -8.1246566772461 8.1246566772461 -52.500499725342
			vertex -6.3835020065308 9.5535860061646 56.674499511719
			vertex -6.3835020065308 9.5535860061646 -52.500499725342
		endloop
	endfacet
	facet normal -0.77301031857206 0.63439344840652 0
		outer loop
			vertex -9.5535860061646 6.3835020065308 -52.500499725342
			vertex -9.5535860061646 6.3835020065308 56.674499511719
			vertex -8.1246566772461 8.1246566772461 56.674499511719
		endloop
	endfacet
	facet normal -0.63439344840652 0.77301031857206 0
		outer loop
			vertex -8.1246566772461 8.1246566772461 -52.500499725342
			vertex -8.1246566772461 8.1246566772461 56.674499511719
			vertex -6.3835020065308 9.5535860061646 56.674499511719
		endloop
	endfacet
	facet normal 0 0 -1
		outer loop
			vertex -6.3835020065308 -9.5535860061646 -52.500499725342
			vertex -6.3835020065308 9.5535860061646 -52.500499725342
			vertex -4.3970327377319 10.615375518799 -52.500499725342
		endloop
	endfacet
	facet normal 0 0 -1
		outer loop
			vertex -4.3970327377319 -10.615375518799 -52.500499725342
			vertex -4.3970327377319 10.615375518799 -52.500499725342
			vertex -2.2415878772736 11.269223213196 -52.500499725342
		endloop
	endfacet
	facet normal 0 0 -1
		outer loop
			vertex -2.2415878772736 -11.269223213196 -52.500499725342
			vertex -2.2415878772736 11.269223213196 -52.500499725342
			vertex 0 11.489999771118 -52.500499725342
		endloop
	endfacet
	facet normal -0.47139658738922 0.88192134422396 0
		outer loop
			vertex -6.3835020065308 9.5535860061646 -52.500499725342
			vertex -4.3970327377319 10.615375518799 56.674499511719
			vertex -4.3970327377319 10.615375518799 -52.500499725342
		endloop
	endfacet
	facet normal -0.29028493918806 0.95694025627548 0
		outer loop
			vertex -4.3970327377319 10.615375518799 -52.500499725342
			vertex -2.2415878772736 11.269223213196 56.674499511719
			vertex -2.2415878772736 11.269223213196 -52.500499725342
		endloop
	endfacet
	facet normal -0.098016886245734 0.99518475169724 0
		outer loop
			vertex -2.2415878772736 11.269223213196 -52.500499725342
			vertex 0 11.489999771118 56.674499511719
			vertex 0 11.489999771118 -52.500499725342
		endloop
	endfacet
	facet normal -0.47139658738922 0.88192134422396 0
		outer loop
			vertex -6.3835020065308 9.5535860061646 -52.500499725342
			vertex -6.3835020065308 9.5535860061646 56.674499511719
			vertex -4.3970327377319 10.615375518799 56.674499511719
		endloop
	endfacet
	facet normal -0.29028493918806 0.95694025627548 0
		outer loop
			vertex -4.3970327377319 10.615375518799 -52.500499725342
			vertex -4.3970327377319 10.615375518799 56.674499511719
			vertex -2.2415878772736 11.269223213196 56.674499511719
		endloop
	endfacet
	facet normal -0.098016886245734 0.99518475169724 0
		outer loop
			vertex -2.2415878772736 11.269223213196 -52.500499725342
			vertex -2.2415878772736 11.269223213196 56.674499511719
			vertex 0 11.489999771118 56.674499511719
		endloop
	endfacet
	facet normal 0 -0 1
		outer loop
			vertex -11.269223213196 -2.2415878772736 56.674499511719
			vertex -11.269223213196 2.2415878772736 56.674499511719
			vertex -11.489999771118 0 56.674499511719
		endloop
	endfacet
	facet normal 0 0 1
		outer loop
			vertex -11.269223213196 -2.2415878772736 56.674499511719
			vertex -10.615375518799 4.3970327377319 56.674499511719
			vertex -11.269223213196 2.2415878772736 56.674499511719
		endloop
	endfacet
	facet normal 0 0 1
		outer loop
			vertex -10.615375518799 -4.3970327377319 56.674499511719
			vertex -9.5535860061646 6.3835020065308 56.674499511719
			vertex -10.615375518799 4.3970327377319 56.674499511719
		endloop
	endfacet
	facet normal 0 0 1
		outer loop
			vertex -9.5535860061646 -6.3835020065308 56.674499511719
			vertex -8.1246566772461 8.1246566772461 56.674499511719
			vertex -9.5535860061646 6.3835020065308 56.674499511719
		endloop
	endfacet
	facet normal 0 0 1
		outer loop
			vertex -8.1246566772461 -8.1246566772461 56.674499511719
			vertex -6.3835020065308 9.5535860061646 56.674499511719
			vertex -8.1246566772461 8.1246566772461 56.674499511719
		endloop
	endfacet
	facet normal 0 0 1
		outer loop
			vertex -4.3970327377319 -10.615375518799 56.674499511719
			vertex -3 0 56.674499511719
			vertex -2.2415878772736 11.269223213196 56.674499511719
		endloop
	endfacet
	facet normal 0 0 1
		outer loop
			vertex -6.3835020065308 -9.5535860061646 56.674499511719
			vertex -4.3970327377319 10.615375518799 56.674499511719
			vertex -6.3835020065308 9.5535860061646 56.674499511719
		endloop
	endfacet
	facet normal 0 0 1
		outer loop
			vertex -4.3970327377319 -10.615375518799 56.674499511719
			vertex -2.2415878772736 11.269223213196 56.674499511719
			vertex -4.3970327377319 10.615375518799 56.674499511719
		endloop
	endfacet
	facet normal 0 0 1
		outer loop
			vertex -2.2415878772736 11.269223213196 56.674499511719
			vertex -3 0 56.674499511719
			vertex -2.9423558712006 0.58527094125748 56.674499511719
		endloop
	endfacet
	facet normal 0 0 1
		outer loop
			vertex -2.2415878772736 11.269223213196 56.674499511719
			vertex -2.9423558712006 0.58527094125748 56.674499511719
			vertex -2.7716386318207 1.1480503082275 56.674499511719
		endloop
	endfacet
	facet normal 0 0 1
		outer loop
			vertex -2.2415878772736 11.269223213196 56.674499511719
			vertex -2.7716386318207 1.1480503082275 56.674499511719
			vertex -2.4944088459015 1.6667107343674 56.674499511719
		endloop
	endfacet
	facet normal 0 0 1
		outer loop
			vertex -2.2415878772736 11.269223213196 56.674499511719
			vertex -2.4944088459015 1.6667107343674 56.674499511719
			vertex -2.1213202476501 2.1213202476501 56.674499511719
		endloop
	endfacet
	facet normal 0 0 1
		outer loop
			vertex -2.2415878772736 11.269223213196 56.674499511719
			vertex -2.1213202476501 2.1213202476501 56.674499511719
			vertex -1.6667107343674 2.4944088459015 56.674499511719
		endloop
	endfacet
	facet normal 0 0 1
		outer loop
			vertex -2.2415878772736 11.269223213196 56.674499511719
			vertex -1.6667107343674 2.4944088459015 56.674499511719
			vertex -1.1480503082275 2.7716386318207 56.674499511719
		endloop
	endfacet
	facet normal 0 0 1
		outer loop
			vertex 0 11.489999771118 56.674499511719
			vertex -1.1480503082275 2.7716386318207 56.674499511719
			vertex -0.58527094125748 2.9423558712006 56.674499511719
		endloop
	endfacet
	facet normal 0 0 1
		outer loop
			vertex 0 11.489999771118 56.674499511719
			vertex -0.58527094125748 2.9423558712006 56.674499511719
			vertex 0 3 56.674499511719
		endloop
	endfacet
	facet normal -0 0 1
		outer loop
			vertex -2.2415878772736 11.269223213196 56.674499511719
			vertex -1.1480503082275 2.7716386318207 56.674499511719
			vertex 0 11.489999771118 56.674499511719
		endloop
	endfacet
	facet normal 0.098016886245734 -0.99518475169724 0
		outer loop
			vertex 0 -11.489999771118 -52.500499725342
			vertex 2.2415878772736 -11.269223213196 -52.500499725342
			vertex 0 -11.489999771118 56.674499511719
		endloop
	endfacet
	facet normal 0.29028493918806 -0.95694025627548 0
		outer loop
			vertex 2.2415878772736 -11.269223213196 -52.500499725342
			vertex 4.3970327377319 -10.615375518799 -52.500499725342
			vertex 2.2415878772736 -11.269223213196 56.674499511719
		endloop
	endfacet
	facet normal 0.47139658738922 -0.88192134422396 0
		outer loop
			vertex 4.3970327377319 -10.615375518799 -52.500499725342
			vertex 6.3835020065308 -9.5535860061646 -52.500499725342
			vertex 4.3970327377319 -10.615375518799 56.674499511719
		endloop
	endfacet
	facet normal 0.098016886245734 -0.99518475169724 0
		outer loop
			vertex 2.2415878772736 -11.269223213196 -52.500499725342
			vertex 2.2415878772736 -11.269223213196 56.674499511719
			vertex 0 -11.489999771118 56.674499511719
		endloop
	endfacet
	facet normal 0.29028493918806 -0.95694025627548 0
		outer loop
			vertex 4.3970327377319 -10.615375518799 -52.500499725342
			vertex 4.3970327377319 -10.615375518799 56.674499511719
			vertex 2.2415878772736 -11.269223213196 56.674499511719
		endloop
	endfacet
	facet normal 0.47139658738922 -0.88192134422396 0
		outer loop
			vertex 6.3835020065308 -9.5535860061646 -52.500499725342
			vertex 6.3835020065308 -9.5535860061646 56.674499511719
			vertex 4.3970327377319 -10.615375518799 56.674499511719
		endloop
	endfacet
	facet normal 0 0 -1
		outer loop
			vertex 0 -11.489999771118 -52.500499725342
			vertex 2.2415878772736 11.269223213196 -52.500499725342
			vertex 2.2415878772736 -11.269223213196 -52.500499725342
		endloop
	endfacet
	facet normal 0 0 -1
		outer loop
			vertex 2.2415878772736 -11.269223213196 -52.500499725342
			vertex 4.3970327377319 10.615375518799 -52.500499725342
			vertex 4.3970327377319 -10.615375518799 -52.500499725342
		endloop
	endfacet
	facet normal 0 0 -1
		outer loop
			vertex 4.3970327377319 -10.615375518799 -52.500499725342
			vertex 6.3835020065308 9.5535860061646 -52.500499725342
			vertex 6.3835020065308 -9.5535860061646 -52.500499725342
		endloop
	endfacet
	facet normal 0.63439344840652 -0.77301031857206 0
		outer loop
			vertex 6.3835020065308 -9.5535860061646 -52.500499725342
			vertex 8.1246566772461 -8.1246566772461 -52.500499725342
			vertex 6.3835020065308 -9.5535860061646 56.674499511719
		endloop
	endfacet
	facet normal 0.77301031857206 -0.63439344840652 0
		outer loop
			vertex 8.1246566772461 -8.1246566772461 -52.500499725342
			vertex 9.5535860061646 -6.3835020065308 -52.500499725342
			vertex 8.1246566772461 -8.1246566772461 56.674499511719
		endloop
	endfacet
	facet normal 0.63439344840652 -0.77301031857206 0
		outer loop
			vertex 8.1246566772461 -8.1246566772461 -52.500499725342
			vertex 8.1246566772461 -8.1246566772461 56.674499511719
			vertex 6.3835020065308 -9.5535860061646 56.674499511719
		endloop
	endfacet
	facet normal 0.77301031857206 -0.63439344840652 0
		outer loop
			vertex 9.5535860061646 -6.3835020065308 -52.500499725342
			vertex 9.5535860061646 -6.3835020065308 56.674499511719
			vertex 8.1246566772461 -8.1246566772461 56.674499511719
		endloop
	endfacet
	facet normal 0 0 -1
		outer loop
			vertex 6.3835020065308 -9.5535860061646 -52.500499725342
			vertex 8.1246566772461 8.1246566772461 -52.500499725342
			vertex 8.1246566772461 -8.1246566772461 -52.500499725342
		endloop
	endfacet
	facet normal 0.88192134422396 -0.47139658738922 0
		outer loop
			vertex 9.5535860061646 -6.3835020065308 -52.500499725342
			vertex 10.615375518799 -4.3970327377319 -52.500499725342
			vertex 9.5535860061646 -6.3835020065308 56.674499511719
		endloop
	endfacet
	facet normal 0.95694025627548 -0.29028493918806 0
		outer loop
			vertex 10.615375518799 -4.3970327377319 -52.500499725342
			vertex 11.269223213196 -2.2415878772736 -52.500499725342
			vertex 10.615375518799 -4.3970327377319 56.674499511719
		endloop
	endfacet
	facet normal 0 0 -1
		outer loop
			vertex 8.1246566772461 -8.1246566772461 -52.500499725342
			vertex 9.5535860061646 6.3835020065308 -52.500499725342
			vertex 9.5535860061646 -6.3835020065308 -52.500499725342
		endloop
	endfacet
	facet normal 0 0 -1
		outer loop
			vertex 9.5535860061646 -6.3835020065308 -52.500499725342
			vertex 10.615375518799 4.3970327377319 -52.500499725342
			vertex 10.615375518799 -4.3970327377319 -52.500499725342
		endloop
	endfacet
	facet normal 0 0 -1
		outer loop
			vertex 10.615375518799 -4.3970327377319 -52.500499725342
			vertex 11.269223213196 2.2415878772736 -52.500499725342
			vertex 11.269223213196 -2.2415878772736 -52.500499725342
		endloop
	endfacet
	facet normal 0.99518475169724 -0.098016886245734 0
		outer loop
			vertex 11.269223213196 -2.2415878772736 -52.500499725342
			vertex 11.489999771118 0 -52.500499725342
			vertex 11.269223213196 -2.2415878772736 56.674499511719
		endloop
	endfacet
	facet normal 0.88192134422396 -0.47139658738922 0
		outer loop
			vertex 10.615375518799 -4.3970327377319 -52.500499725342
			vertex 10.615375518799 -4.3970327377319 56.674499511719
			vertex 9.5535860061646 -6.3835020065308 56.674499511719
		endloop
	endfacet
	facet normal 0.95694025627548 -0.29028493918806 0
		outer loop
			vertex 11.269223213196 -2.2415878772736 -52.500499725342
			vertex 11.269223213196 -2.2415878772736 56.674499511719
			vertex 10.615375518799 -4.3970327377319 56.674499511719
		endloop
	endfacet
	facet normal 0.99518475169724 -0.098016886245734 0
		outer loop
			vertex 11.269223213196 -2.2415878772736 56.674499511719
			vertex 11.489999771118 0 -52.500499725342
			vertex 11.489999771118 0 56.674499511719
		endloop
	endfacet
	facet normal 0 0 1
		outer loop
			vertex 0 -11.489999771118 56.674499511719
			vertex 2.2415878772736 -11.269223213196 56.674499511719
			vertex 1.1480503082275 -2.7716386318207 56.674499511719
		endloop
	endfacet
	facet normal 0 0 1
		outer loop
			vertex 0 -11.489999771118 56.674499511719
			vertex 0.58527094125748 -2.9423558712006 56.674499511719
			vertex 0 -3 56.674499511719
		endloop
	endfacet
	facet normal 0 0 1
		outer loop
			vertex 0 -11.489999771118 56.674499511719
			vertex 1.1480503082275 -2.7716386318207 56.674499511719
			vertex 0.58527094125748 -2.9423558712006 56.674499511719
		endloop
	endfacet
	facet normal 0 0 1
		outer loop
			vertex 2.2415878772736 -11.269223213196 56.674499511719
			vertex 1.6667107343674 -2.4944088459015 56.674499511719
			vertex 1.1480503082275 -2.7716386318207 56.674499511719
		endloop
	endfacet
	facet normal 0 0 1
		outer loop
			vertex 2.2415878772736 -11.269223213196 56.674499511719
			vertex 2.1213202476501 -2.1213202476501 56.674499511719
			vertex 1.6667107343674 -2.4944088459015 56.674499511719
		endloop
	endfacet
	facet normal 0 -0 1
		outer loop
			vertex 2.2415878772736 -11.269223213196 56.674499511719
			vertex 2.4944088459015 -1.6667107343674 56.674499511719
			vertex 2.1213202476501 -2.1213202476501 56.674499511719
		endloop
	endfacet
	facet normal 0 0 1
		outer loop
			vertex 2.2415878772736 -11.269223213196 56.674499511719
			vertex 2.7716386318207 -1.1480503082275 56.674499511719
			vertex 2.4944088459015 -1.6667107343674 56.674499511719
		endloop
	endfacet
	facet normal 0 0 1
		outer loop
			vertex 2.2415878772736 -11.269223213196 56.674499511719
			vertex 2.9423558712006 -0.58527094125748 56.674499511719
			vertex 2.7716386318207 -1.1480503082275 56.674499511719
		endloop
	endfacet
	facet normal 0 0 1
		outer loop
			vertex 2.2415878772736 -11.269223213196 56.674499511719
			vertex 3 0 56.674499511719
			vertex 2.9423558712006 -0.58527094125748 56.674499511719
		endloop
	endfacet
	facet normal 0 0 1
		outer loop
			vertex 2.2415878772736 -11.269223213196 56.674499511719
			vertex 4.3970327377319 -10.615375518799 56.674499511719
			vertex 4.3970327377319 10.615375518799 56.674499511719
		endloop
	endfacet
	facet normal 0 0 1
		outer loop
			vertex 4.3970327377319 -10.615375518799 56.674499511719
			vertex 6.3835020065308 -9.5535860061646 56.674499511719
			vertex 6.3835020065308 9.5535860061646 56.674499511719
		endloop
	endfacet
	facet normal 0 0 1
		outer loop
			vertex 2.2415878772736 -11.269223213196 56.674499511719
			vertex 4.3970327377319 10.615375518799 56.674499511719
			vertex 3 0 56.674499511719
		endloop
	endfacet
	facet normal 0 0 1
		outer loop
			vertex 6.3835020065308 -9.5535860061646 56.674499511719
			vertex 8.1246566772461 -8.1246566772461 56.674499511719
			vertex 8.1246566772461 8.1246566772461 56.674499511719
		endloop
	endfacet
	facet normal 0 0 1
		outer loop
			vertex 8.1246566772461 -8.1246566772461 56.674499511719
			vertex 9.5535860061646 -6.3835020065308 56.674499511719
			vertex 9.5535860061646 6.3835020065308 56.674499511719
		endloop
	endfacet
	facet normal 0 0 1
		outer loop
			vertex 9.5535860061646 -6.3835020065308 56.674499511719
			vertex 10.615375518799 -4.3970327377319 56.674499511719
			vertex 10.615375518799 4.3970327377319 56.674499511719
		endloop
	endfacet
	facet normal 0 0 1
		outer loop
			vertex 10.615375518799 -4.3970327377319 56.674499511719
			vertex 11.269223213196 -2.2415878772736 56.674499511719
			vertex 11.269223213196 2.2415878772736 56.674499511719
		endloop
	endfacet
	facet normal 0 0 -1
		outer loop
			vertex 0 -11.489999771118 -52.500499725342
			vertex 0 11.489999771118 -52.500499725342
			vertex 2.2415878772736 11.269223213196 -52.500499725342
		endloop
	endfacet
	facet normal 0 0 -1
		outer loop
			vertex 2.2415878772736 -11.269223213196 -52.500499725342
			vertex 2.2415878772736 11.269223213196 -52.500499725342
			vertex 4.3970327377319 10.615375518799 -52.500499725342
		endloop
	endfacet
	facet normal 0 0 -1
		outer loop
			vertex 4.3970327377319 -10.615375518799 -52.500499725342
			vertex 4.3970327377319 10.615375518799 -52.500499725342
			vertex 6.3835020065308 9.5535860061646 -52.500499725342
		endloop
	endfacet
	facet normal 0.098016886245734 0.99518475169724 0
		outer loop
			vertex 0 11.489999771118 -52.500499725342
			vertex 2.2415878772736 11.269223213196 56.674499511719
			vertex 2.2415878772736 11.269223213196 -52.500499725342
		endloop
	endfacet
	facet normal 0.29028493918806 0.95694025627548 0
		outer loop
			vertex 2.2415878772736 11.269223213196 -52.500499725342
			vertex 4.3970327377319 10.615375518799 56.674499511719
			vertex 4.3970327377319 10.615375518799 -52.500499725342
		endloop
	endfacet
	facet normal 0.47139658738922 0.88192134422396 0
		outer loop
			vertex 4.3970327377319 10.615375518799 -52.500499725342
			vertex 6.3835020065308 9.5535860061646 56.674499511719
			vertex 6.3835020065308 9.5535860061646 -52.500499725342
		endloop
	endfacet
	facet normal 0.098016886245734 0.99518475169724 -0
		outer loop
			vertex 0 11.489999771118 -52.500499725342
			vertex 0 11.489999771118 56.674499511719
			vertex 2.2415878772736 11.269223213196 56.674499511719
		endloop
	endfacet
	facet normal 0.29028493918806 0.95694025627548 -0
		outer loop
			vertex 2.2415878772736 11.269223213196 -52.500499725342
			vertex 2.2415878772736 11.269223213196 56.674499511719
			vertex 4.3970327377319 10.615375518799 56.674499511719
		endloop
	endfacet
	facet normal 0.47139658738922 0.88192134422396 -0
		outer loop
			vertex 4.3970327377319 10.615375518799 -52.500499725342
			vertex 4.3970327377319 10.615375518799 56.674499511719
			vertex 6.3835020065308 9.5535860061646 56.674499511719
		endloop
	endfacet
	facet normal 0 0 -1
		outer loop
			vertex 6.3835020065308 -9.5535860061646 -52.500499725342
			vertex 6.3835020065308 9.5535860061646 -52.500499725342
			vertex 8.1246566772461 8.1246566772461 -52.500499725342
		endloop
	endfacet
	facet normal 0 0 -1
		outer loop
			vertex 8.1246566772461 -8.1246566772461 -52.500499725342
			vertex 8.1246566772461 8.1246566772461 -52.500499725342
			vertex 9.5535860061646 6.3835020065308 -52.500499725342
		endloop
	endfacet
	facet normal 0 0 -1
		outer loop
			vertex 9.5535860061646 -6.3835020065308 -52.500499725342
			vertex 9.5535860061646 6.3835020065308 -52.500499725342
			vertex 10.615375518799 4.3970327377319 -52.500499725342
		endloop
	endfacet
	facet normal 0 0 -1
		outer loop
			vertex 11.269223213196 -2.2415878772736 -52.500499725342
			vertex 11.269223213196 2.2415878772736 -52.500499725342
			vertex 11.489999771118 0 -52.500499725342
		endloop
	endfacet
	facet normal 0 0 -1
		outer loop
			vertex 10.615375518799 -4.3970327377319 -52.500499725342
			vertex 10.615375518799 4.3970327377319 -52.500499725342
			vertex 11.269223213196 2.2415878772736 -52.500499725342
		endloop
	endfacet
	facet normal 0.99518475169724 0.098016886245734 -0
		outer loop
			vertex 11.489999771118 0 -52.500499725342
			vertex 11.269223213196 2.2415878772736 -52.500499725342
			vertex 11.489999771118 0 56.674499511719
		endloop
	endfacet
	facet normal 0.95694025627548 0.29028493918806 -0
		outer loop
			vertex 11.269223213196 2.2415878772736 -52.500499725342
			vertex 10.615375518799 4.3970327377319 -52.500499725342
			vertex 11.269223213196 2.2415878772736 56.674499511719
		endloop
	endfacet
	facet normal 0.88192134422396 0.47139658738922 -0
		outer loop
			vertex 10.615375518799 4.3970327377319 -52.500499725342
			vertex 9.5535860061646 6.3835020065308 -52.500499725342
			vertex 10.615375518799 4.3970327377319 56.674499511719
		endloop
	endfacet
	facet normal 0.99518475169724 0.098016886245734 -0
		outer loop
			vertex 11.269223213196 2.2415878772736 -52.500499725342
			vertex 11.269223213196 2.2415878772736 56.674499511719
			vertex 11.489999771118 0 56.674499511719
		endloop
	endfacet
	facet normal 0.88192134422396 0.47139658738922 -0
		outer loop
			vertex 9.5535860061646 6.3835020065308 -52.500499725342
			vertex 9.5535860061646 6.3835020065308 56.674499511719
			vertex 10.615375518799 4.3970327377319 56.674499511719
		endloop
	endfacet
	facet normal 0.95694025627548 0.29028493918806 -0
		outer loop
			vertex 10.615375518799 4.3970327377319 -52.500499725342
			vertex 10.615375518799 4.3970327377319 56.674499511719
			vertex 11.269223213196 2.2415878772736 56.674499511719
		endloop
	endfacet
	facet normal 0.63439344840652 0.77301031857206 -0
		outer loop
			vertex 8.1246566772461 8.1246566772461 -52.500499725342
			vertex 6.3835020065308 9.5535860061646 -52.500499725342
			vertex 8.1246566772461 8.1246566772461 56.674499511719
		endloop
	endfacet
	facet normal 0.77301031857206 0.63439344840652 0
		outer loop
			vertex 8.1246566772461 8.1246566772461 -52.500499725342
			vertex 9.5535860061646 6.3835020065308 56.674499511719
			vertex 9.5535860061646 6.3835020065308 -52.500499725342
		endloop
	endfacet
	facet normal 0.77301031857206 0.63439344840652 -0
		outer loop
			vertex 8.1246566772461 8.1246566772461 -52.500499725342
			vertex 8.1246566772461 8.1246566772461 56.674499511719
			vertex 9.5535860061646 6.3835020065308 56.674499511719
		endloop
	endfacet
	facet normal 0.63439344840652 0.77301031857206 -0
		outer loop
			vertex 6.3835020065308 9.5535860061646 -52.500499725342
			vertex 6.3835020065308 9.5535860061646 56.674499511719
			vertex 8.1246566772461 8.1246566772461 56.674499511719
		endloop
	endfacet
	facet normal 0 0 1
		outer loop
			vertex 2.2415878772736 11.269223213196 56.674499511719
			vertex 0 3 56.674499511719
			vertex 0.58527094125748 2.9423558712006 56.674499511719
		endloop
	endfacet
	facet normal 0 0 1
		outer loop
			vertex 2.2415878772736 11.269223213196 56.674499511719
			vertex 0.58527094125748 2.9423558712006 56.674499511719
			vertex 1.1480503082275 2.7716386318207 56.674499511719
		endloop
	endfacet
	facet normal 0 0 1
		outer loop
			vertex 2.2415878772736 11.269223213196 56.674499511719
			vertex 1.1480503082275 2.7716386318207 56.674499511719
			vertex 1.6667107343674 2.4944088459015 56.674499511719
		endloop
	endfacet
	facet normal 0 0 1
		outer loop
			vertex 2.2415878772736 11.269223213196 56.674499511719
			vertex 1.6667107343674 2.4944088459015 56.674499511719
			vertex 2.1213202476501 2.1213202476501 56.674499511719
		endloop
	endfacet
	facet normal 0 0 1
		outer loop
			vertex 4.3970327377319 10.615375518799 56.674499511719
			vertex 2.9423558712006 0.58527094125748 56.674499511719
			vertex 3 0 56.674499511719
		endloop
	endfacet
	facet normal 0 0 1
		outer loop
			vertex 4.3970327377319 10.615375518799 56.674499511719
			vertex 2.7716386318207 1.1480503082275 56.674499511719
			vertex 2.9423558712006 0.58527094125748 56.674499511719
		endloop
	endfacet
	facet normal 0 0 1
		outer loop
			vertex 4.3970327377319 10.615375518799 56.674499511719
			vertex 2.4944088459015 1.6667107343674 56.674499511719
			vertex 2.7716386318207 1.1480503082275 56.674499511719
		endloop
	endfacet
	facet normal 0 0 1
		outer loop
			vertex 4.3970327377319 10.615375518799 56.674499511719
			vertex 2.1213202476501 2.1213202476501 56.674499511719
			vertex 2.4944088459015 1.6667107343674 56.674499511719
		endloop
	endfacet
	facet normal 0 0 1
		outer loop
			vertex 4.3970327377319 -10.615375518799 56.674499511719
			vertex 6.3835020065308 9.5535860061646 56.674499511719
			vertex 4.3970327377319 10.615375518799 56.674499511719
		endloop
	endfacet
	facet normal 0 0 1
		outer loop
			vertex 0 11.489999771118 56.674499511719
			vertex 0 3 56.674499511719
			vertex 2.2415878772736 11.269223213196 56.674499511719
		endloop
	endfacet
	facet normal 0 0 1
		outer loop
			vertex 2.2415878772736 11.269223213196 56.674499511719
			vertex 2.1213202476501 2.1213202476501 56.674499511719
			vertex 4.3970327377319 10.615375518799 56.674499511719
		endloop
	endfacet
	facet normal 0 0 1
		outer loop
			vertex 6.3835020065308 -9.5535860061646 56.674499511719
			vertex 8.1246566772461 8.1246566772461 56.674499511719
			vertex 6.3835020065308 9.5535860061646 56.674499511719
		endloop
	endfacet
	facet normal 0 0 1
		outer loop
			vertex 8.1246566772461 -8.1246566772461 56.674499511719
			vertex 9.5535860061646 6.3835020065308 56.674499511719
			vertex 8.1246566772461 8.1246566772461 56.674499511719
		endloop
	endfacet
	facet normal 0 0 1
		outer loop
			vertex 9.5535860061646 -6.3835020065308 56.674499511719
			vertex 10.615375518799 4.3970327377319 56.674499511719
			vertex 9.5535860061646 6.3835020065308 56.674499511719
		endloop
	endfacet
	facet normal 0 0 1
		outer loop
			vertex 11.269223213196 -2.2415878772736 56.674499511719
			vertex 11.489999771118 0 56.674499511719
			vertex 11.269223213196 2.2415878772736 56.674499511719
		endloop
	endfacet
	facet normal 0 0 1
		outer loop
			vertex 10.615375518799 -4.3970327377319 56.674499511719
			vertex 11.269223213196 2.2415878772736 56.674499511719
			vertex 10.615375518799 4.3970327377319 56.674499511719
		endloop
	endfacet
	facet normal 0 0 1
		outer loop
			vertex 0 0 0
			vertex 1 0 0
			vertex 0 1 0
		endloop
	endfacet
	facet normal 1 0 0
		outer loop
			vertex 0 0 0
			vertex 0 1 1
			vertex 0 0 1
		endloop
	endfacet
	facet normal 0 1 0
		outer loop
			vertex 0 0 0
			vertex 0 0 1
			vertex 1 0 0
		endloop
	endfacet
	facet normal 0 0 -1
		outer loop
			vertex 0 0 1
			vertex 0 1 1
			vertex 1 0 1
		endloop
	endfacet
	facet normal 1 0 0
		outer loop
			vertex 0 0 0
			vertex 0 1 0
			vertex 0 1 1
		endloop
	endfacet
	facet normal -0 1 0
		outer loop
			vertex 0 0 1
			vertex 1 0 1
			vertex 1 0 0
		endloop
	endfacet
	facet normal -0 0 1
		outer loop
			vertex 0 1 0
			vertex 1 0 0
			vertex 1 1 0
		endloop
	endfacet
	facet normal 0 0 -1
		outer loop
			vertex 0 1 1
			vertex 1 1 1
			vertex 1 0 1
		endloop
	endfacet
	facet normal 0 -1 0
		outer loop
			vertex 0 1 0
			vertex 1 1 1
			vertex 0 1 1
		endloop
	endfacet
	facet normal 0 -1 0
		outer loop
			vertex 0 1 0
			vertex 1 1 0
			vertex 1 1 1
		endloop
	endfacet
	facet normal -1 0 0
		outer loop
			vertex 1 0 0
			vertex 1 0 1
			vertex 1 1 0
		endloop
	endfacet
	facet normal -1 0 0
		outer loop
			vertex 1 0 1
			vertex 1 1 1
			vertex 1 1 0
		endloop
	endfacet
endsolid