solid csg_export
	facet normal -0.77301027609239 -0.63439350016813 -0
		outer loop
			vertex -2.4944088459015 -1.6667107343674 145.99949645996
			vertex -2.4944088459015 -1.6667107343674 56.674499511719
			vertex -2.1213202476501 -2.1213202476501 56.674499511719
		endloop
	endfacet
	facet normal -0.63439350016813 -0.77301027609239 -0
		outer loop
			vertex -2.1213202476501 -2.1213202476501 145.99949645996
			vertex -2.1213202476501 -2.1213202476501 56.674499511719
			vertex -1.6667107343674 -2.4944088459015 56.674499511719
		endloop
	endfacet
	facet normal 0 -0 -1
		outer loop
			vertex -2.7716386318207 1.1480503082275 56.674499511719
			vertex -2.7716386318207 -1.1480503082275 56.674499511719
			vertex -2.9423558712006 -0.58527094125748 56.674499511719
		endloop
	endfacet
	facet normal 0 -0 -1
		outer loop
			vertex -2.4944088459015 1.6667107343674 56.674499511719
			vertex -2.4944088459015 -1.6667107343674 56.674499511719
			vertex -2.7716386318207 -1.1480503082275 56.674499511719
		endloop
	endfacet
	facet normal 0 -0 -1
		outer loop
			vertex -2.1213202476501 2.1213202476501 56.674499511719
			vertex -2.1213202476501 -2.1213202476501 56.674499511719
			vertex -2.4944088459015 -1.6667107343674 56.674499511719
		endloop
	endfacet
	facet normal 0 -0 -1
		outer loop
			vertex -1.6667107343674 2.4944088459015 56.674499511719
			vertex -1.6667107343674 -2.4944088459015 56.674499511719
			vertex -2.1213202476501 -2.1213202476501 56.674499511719
		endloop
	endfacet
	facet normal -0.88192125560357 -0.47139675318634 -0
		outer loop
			vertex -2.7716386318207 -1.1480503082275 145.99949645996
			vertex -2.7716386318207 -1.1480503082275 56.674499511719
			vertex -2.4944088459015 -1.6667107343674 56.674499511719
		endloop
	endfacet
	facet normal -0.95694034290854 -0.29028465359725 -0
		outer loop
			vertex -2.9423558712006 -0.58527094125748 145.99949645996
			vertex -2.9423558712006 -0.58527094125748 56.674499511719
			vertex -2.7716386318207 -1.1480503082275 56.674499511719
		endloop
	endfacet
	facet normal -0.99518473124162 -0.098017093935455 -0
		outer loop
			vertex -3 0 145.99949645996
			vertex -3 0 56.674499511719
			vertex -2.9423558712006 -0.58527094125748 56.674499511719
		endloop
	endfacet
	facet normal -0.47139675318634 -0.88192125560357 -0
		outer loop
			vertex -1.6667107343674 -2.4944088459015 145.99949645996
			vertex -1.6667107343674 -2.4944088459015 56.674499511719
			vertex -1.1480503082275 -2.7716386318207 56.674499511719
		endloop
	endfacet
	facet normal -0.29028465359725 -0.95694034290854 -0
		outer loop
			vertex -1.1480503082275 -2.7716386318207 145.99949645996
			vertex -1.1480503082275 -2.7716386318207 56.674499511719
			vertex -0.58527094125748 -2.9423558712006 56.674499511719
		endloop
	endfacet
	facet normal -0.098017093935455 -0.99518473124162 -0
		outer loop
			vertex -0.58527094125748 -2.9423558712006 145.99949645996
			vertex -0.58527094125748 -2.9423558712006 56.674499511719
			vertex 0 -3 56.674499511719
		endloop
	endfacet
	facet normal 0 -0 -1
		outer loop
			vertex -1.1480503082275 2.7716386318207 56.674499511719
			vertex -1.1480503082275 -2.7716386318207 56.674499511719
			vertex -1.6667107343674 -2.4944088459015 56.674499511719
		endloop
	endfacet
	facet normal 0 -0 -1
		outer loop
			vertex -0.58527094125748 2.9423558712006 56.674499511719
			vertex -0.58527094125748 -2.9423558712006 56.674499511719
			vertex -1.1480503082275 -2.7716386318207 56.674499511719
		endloop
	endfacet
	facet normal 0 -0 -1
		outer loop
			vertex 0 3 56.674499511719
			vertex 0 -3 56.674499511719
			vertex -0.58527094125748 -2.9423558712006 56.674499511719
		endloop
	endfacet
	facet normal -0.63439350016813 -0.77301027609239 -0
		outer loop
			vertex -1.6667107343674 -2.4944088459015 145.99949645996
			vertex -2.1213202476501 -2.1213202476501 145.99949645996
			vertex -1.6667107343674 -2.4944088459015 56.674499511719
		endloop
	endfacet
	facet normal -0.77301027609239 -0.63439350016813 -0
		outer loop
			vertex -2.1213202476501 -2.1213202476501 145.99949645996
			vertex -2.4944088459015 -1.6667107343674 145.99949645996
			vertex -2.1213202476501 -2.1213202476501 56.674499511719
		endloop
	endfacet
	facet normal -0.95694034290854 -0.29028465359725 -0
		outer loop
			vertex -2.7716386318207 -1.1480503082275 145.99949645996
			vertex -2.9423558712006 -0.58527094125748 145.99949645996
			vertex -2.7716386318207 -1.1480503082275 56.674499511719
		endloop
	endfacet
	facet normal -0.88192125560357 -0.47139675318634 -0
		outer loop
			vertex -2.4944088459015 -1.6667107343674 145.99949645996
			vertex -2.7716386318207 -1.1480503082275 145.99949645996
			vertex -2.4944088459015 -1.6667107343674 56.674499511719
		endloop
	endfacet
	facet normal -0.99518473124162 -0.098017093935455 -0
		outer loop
			vertex -2.9423558712006 -0.58527094125748 145.99949645996
			vertex -3 0 145.99949645996
			vertex -2.9423558712006 -0.58527094125748 56.674499511719
		endloop
	endfacet
	facet normal 0 0 1
		outer loop
			vertex -2.7716386318207 1.1480503082275 145.99949645996
			vertex -2.9423558712006 -0.58527094125748 145.99949645996
			vertex -2.7716386318207 -1.1480503082275 145.99949645996
		endloop
	endfacet
	facet normal 0 0 1
		outer loop
			vertex -2.4944088459015 1.6667107343674 145.99949645996
			vertex -2.7716386318207 -1.1480503082275 145.99949645996
			vertex -2.4944088459015 -1.6667107343674 145.99949645996
		endloop
	endfacet
	facet normal 0 0 1
		outer loop
			vertex -2.1213202476501 2.1213202476501 145.99949645996
			vertex -2.4944088459015 -1.6667107343674 145.99949645996
			vertex -2.1213202476501 -2.1213202476501 145.99949645996
		endloop
	endfacet
	facet normal 0 0 1
		outer loop
			vertex -1.6667107343674 2.4944088459015 145.99949645996
			vertex -2.1213202476501 -2.1213202476501 145.99949645996
			vertex -1.6667107343674 -2.4944088459015 145.99949645996
		endloop
	endfacet
	facet normal -0.47139675318634 -0.88192125560357 -0
		outer loop
			vertex -1.1480503082275 -2.7716386318207 145.99949645996
			vertex -1.6667107343674 -2.4944088459015 145.99949645996
			vertex -1.1480503082275 -2.7716386318207 56.674499511719
		endloop
	endfacet
	facet normal -0.29028465359725 -0.95694034290854 -0
		outer loop
			vertex -0.58527094125748 -2.9423558712006 145.99949645996
			vertex -1.1480503082275 -2.7716386318207 145.99949645996
			vertex -0.58527094125748 -2.9423558712006 56.674499511719
		endloop
	endfacet
	facet normal -0.098017093935455 -0.99518473124162 -0
		outer loop
			vertex 0 -3 145.99949645996
			vertex -0.58527094125748 -2.9423558712006 145.99949645996
			vertex 0 -3 56.674499511719
		endloop
	endfacet
	facet normal 0 0 1
		outer loop
			vertex -1.1480503082275 2.7716386318207 145.99949645996
			vertex -1.6667107343674 -2.4944088459015 145.99949645996
			vertex -1.1480503082275 -2.7716386318207 145.99949645996
		endloop
	endfacet
	facet normal 0 0 1
		outer loop
			vertex -0.58527094125748 2.9423558712006 145.99949645996
			vertex -1.1480503082275 -2.7716386318207 145.99949645996
			vertex -0.58527094125748 -2.9423558712006 145.99949645996
		endloop
	endfacet
	facet normal 0 0 1
		outer loop
			vertex 0 3 145.99949645996
			vertex -0.58527094125748 -2.9423558712006 145.99949645996
			vertex 0 -3 145.99949645996
		endloop
	endfacet
	facet normal 0 -0 -1
		outer loop
			vertex -2.9423558712006 0.58527094125748 56.674499511719
			vertex -2.9423558712006 -0.58527094125748 56.674499511719
			vertex -3 0 56.674499511719
		endloop
	endfacet
	facet normal 0 0 -1
		outer loop
			vertex -2.7716386318207 1.1480503082275 56.674499511719
			vertex -2.9423558712006 -0.58527094125748 56.674499511719
			vertex -2.9423558712006 0.58527094125748 56.674499511719
		endloop
	endfacet
	facet normal 0 0 -1
		outer loop
			vertex -2.4944088459015 1.6667107343674 56.674499511719
			vertex -2.7716386318207 -1.1480503082275 56.674499511719
			vertex -2.7716386318207 1.1480503082275 56.674499511719
		endloop
	endfacet
	facet normal 0 0 -1
		outer loop
			vertex -2.1213202476501 2.1213202476501 56.674499511719
			vertex -2.4944088459015 -1.6667107343674 56.674499511719
			vertex -2.4944088459015 1.6667107343674 56.674499511719
		endloop
	endfacet
	facet normal 0 0 -1
		outer loop
			vertex -1.6667107343674 2.4944088459015 56.674499511719
			vertex -2.1213202476501 -2.1213202476501 56.674499511719
			vertex -2.1213202476501 2.1213202476501 56.674499511719
		endloop
	endfacet
	facet normal -0.99518473124162 0.098017093935455 0
		outer loop
			vertex -2.9423558712006 0.58527094125748 145.99949645996
			vertex -2.9423558712006 0.58527094125748 56.674499511719
			vertex -3 0 56.674499511719
		endloop
	endfacet
	facet normal -0.95694034290854 0.29028465359725 0
		outer loop
			vertex -2.7716386318207 1.1480503082275 145.99949645996
			vertex -2.7716386318207 1.1480503082275 56.674499511719
			vertex -2.9423558712006 0.58527094125748 56.674499511719
		endloop
	endfacet
	facet normal -0.88192125560357 0.47139675318634 0
		outer loop
			vertex -2.4944088459015 1.6667107343674 145.99949645996
			vertex -2.4944088459015 1.6667107343674 56.674499511719
			vertex -2.7716386318207 1.1480503082275 56.674499511719
		endloop
	endfacet
	facet normal -0.77301027609239 0.63439350016813 0
		outer loop
			vertex -2.1213202476501 2.1213202476501 145.99949645996
			vertex -2.1213202476501 2.1213202476501 56.674499511719
			vertex -2.4944088459015 1.6667107343674 56.674499511719
		endloop
	endfacet
	facet normal -0.63439350016813 0.77301027609239 0
		outer loop
			vertex -1.6667107343674 2.4944088459015 145.99949645996
			vertex -1.6667107343674 2.4944088459015 56.674499511719
			vertex -2.1213202476501 2.1213202476501 56.674499511719
		endloop
	endfacet
	facet normal 0 0 -1
		outer loop
			vertex -1.1480503082275 2.7716386318207 56.674499511719
			vertex -1.6667107343674 -2.4944088459015 56.674499511719
			vertex -1.6667107343674 2.4944088459015 56.674499511719
		endloop
	endfacet
	facet normal 0 0 -1
		outer loop
			vertex -0.58527094125748 2.9423558712006 56.674499511719
			vertex -1.1480503082275 -2.7716386318207 56.674499511719
			vertex -1.1480503082275 2.7716386318207 56.674499511719
		endloop
	endfacet
	facet normal 0 0 -1
		outer loop
			vertex 0 3 56.674499511719
			vertex -0.58527094125748 -2.9423558712006 56.674499511719
			vertex -0.58527094125748 2.9423558712006 56.674499511719
		endloop
	endfacet
	facet normal -0.47139675318634 0.88192125560357 0
		outer loop
			vertex -1.1480503082275 2.7716386318207 145.99949645996
			vertex -1.1480503082275 2.7716386318207 56.674499511719
			vertex -1.6667107343674 2.4944088459015 56.674499511719
		endloop
	endfacet
	facet normal -0.29028465359725 0.95694034290854 0
		outer loop
			vertex -0.58527094125748 2.9423558712006 145.99949645996
			vertex -0.58527094125748 2.9423558712006 56.674499511719
			vertex -1.1480503082275 2.7716386318207 56.674499511719
		endloop
	endfacet
	facet normal -0.098017093935455 0.99518473124162 0
		outer loop
			vertex 0 3 145.99949645996
			vertex 0 3 56.674499511719
			vertex -0.58527094125748 2.9423558712006 56.674499511719
		endloop
	endfacet
	facet normal -0.99518473124162 0.098017093935455 0
		outer loop
			vertex -3 0 145.99949645996
			vertex -2.9423558712006 0.58527094125748 145.99949645996
			vertex -3 0 56.674499511719
		endloop
	endfacet
	facet normal -0.95694034290854 0.29028465359725 0
		outer loop
			vertex -2.9423558712006 0.58527094125748 145.99949645996
			vertex -2.7716386318207 1.1480503082275 145.99949645996
			vertex -2.9423558712006 0.58527094125748 56.674499511719
		endloop
	endfacet
	facet normal -0.88192125560357 0.47139675318634 0
		outer loop
			vertex -2.7716386318207 1.1480503082275 145.99949645996
			vertex -2.4944088459015 1.6667107343674 145.99949645996
			vertex -2.7716386318207 1.1480503082275 56.674499511719
		endloop
	endfacet
	facet normal 0 0 1
		outer loop
			vertex -2.9423558712006 0.58527094125748 145.99949645996
			vertex -3 0 145.99949645996
			vertex -2.9423558712006 -0.58527094125748 145.99949645996
		endloop
	endfacet
	facet normal 0 0 1
		outer loop
			vertex -2.7716386318207 1.1480503082275 145.99949645996
			vertex -2.9423558712006 0.58527094125748 145.99949645996
			vertex -2.9423558712006 -0.58527094125748 145.99949645996
		endloop
	endfacet
	facet normal 0 0 1
		outer loop
			vertex -2.4944088459015 1.6667107343674 145.99949645996
			vertex -2.7716386318207 1.1480503082275 145.99949645996
			vertex -2.7716386318207 -1.1480503082275 145.99949645996
		endloop
	endfacet
	facet normal 0 0 1
		outer loop
			vertex -2.1213202476501 2.1213202476501 145.99949645996
			vertex -2.4944088459015 1.6667107343674 145.99949645996
			vertex -2.4944088459015 -1.6667107343674 145.99949645996
		endloop
	endfacet
	facet normal 0 0 1
		outer loop
			vertex -1.6667107343674 2.4944088459015 145.99949645996
			vertex -2.1213202476501 2.1213202476501 145.99949645996
			vertex -2.1213202476501 -2.1213202476501 145.99949645996
		endloop
	endfacet
	facet normal -0.77301027609239 0.63439350016813 0
		outer loop
			vertex -2.4944088459015 1.6667107343674 145.99949645996
			vertex -2.1213202476501 2.1213202476501 145.99949645996
			vertex -2.4944088459015 1.6667107343674 56.674499511719
		endloop
	endfacet
	facet normal -0.63439350016813 0.77301027609239 0
		outer loop
			vertex -2.1213202476501 2.1213202476501 145.99949645996
			vertex -1.6667107343674 2.4944088459015 145.99949645996
			vertex -2.1213202476501 2.1213202476501 56.674499511719
		endloop
	endfacet
	facet normal 0 0 1
		outer loop
			vertex -1.1480503082275 2.7716386318207 145.99949645996
			vertex -1.6667107343674 2.4944088459015 145.99949645996
			vertex -1.6667107343674 -2.4944088459015 145.99949645996
		endloop
	endfacet
	facet normal 0 0 1
		outer loop
			vertex -0.58527094125748 2.9423558712006 145.99949645996
			vertex -1.1480503082275 2.7716386318207 145.99949645996
			vertex -1.1480503082275 -2.7716386318207 145.99949645996
		endloop
	endfacet
	facet normal 0 0 1
		outer loop
			vertex 0 3 145.99949645996
			vertex -0.58527094125748 2.9423558712006 145.99949645996
			vertex -0.58527094125748 -2.9423558712006 145.99949645996
		endloop
	endfacet
	facet normal -0.47139675318634 0.88192125560357 0
		outer loop
			vertex -1.6667107343674 2.4944088459015 145.99949645996
			vertex -1.1480503082275 2.7716386318207 145.99949645996
			vertex -1.6667107343674 2.4944088459015 56.674499511719
		endloop
	endfacet
	facet normal -0.29028465359725 0.95694034290854 0
		outer loop
			vertex -1.1480503082275 2.7716386318207 145.99949645996
			vertex -0.58527094125748 2.9423558712006 145.99949645996
			vertex -1.1480503082275 2.7716386318207 56.674499511719
		endloop
	endfacet
	facet normal -0.098017093935455 0.99518473124162 0
		outer loop
			vertex -0.58527094125748 2.9423558712006 145.99949645996
			vertex 0 3 145.99949645996
			vertex -0.58527094125748 2.9423558712006 56.674499511719
		endloop
	endfacet
	facet normal 0.098017093935455 -0.99518473124162 0
		outer loop
			vertex 0 -3 145.99949645996
			vertex 0 -3 56.674499511719
			vertex 0.58527094125748 -2.9423558712006 56.674499511719
		endloop
	endfacet
	facet normal 0.29028465359725 -0.95694034290854 0
		outer loop
			vertex 0.58527094125748 -2.9423558712006 145.99949645996
			vertex 0.58527094125748 -2.9423558712006 56.674499511719
			vertex 1.1480503082275 -2.7716386318207 56.674499511719
		endloop
	endfacet
	facet normal 0.47139675318634 -0.88192125560357 0
		outer loop
			vertex 1.1480503082275 -2.7716386318207 145.99949645996
			vertex 1.1480503082275 -2.7716386318207 56.674499511719
			vertex 1.6667107343674 -2.4944088459015 56.674499511719
		endloop
	endfacet
	facet normal 0 -0 -1
		outer loop
			vertex 0.58527094125748 2.9423558712006 56.674499511719
			vertex 0.58527094125748 -2.9423558712006 56.674499511719
			vertex 0 -3 56.674499511719
		endloop
	endfacet
	facet normal 0 -0 -1
		outer loop
			vertex 1.1480503082275 2.7716386318207 56.674499511719
			vertex 1.1480503082275 -2.7716386318207 56.674499511719
			vertex 0.58527094125748 -2.9423558712006 56.674499511719
		endloop
	endfacet
	facet normal 0 -0 -1
		outer loop
			vertex 1.6667107343674 2.4944088459015 56.674499511719
			vertex 1.6667107343674 -2.4944088459015 56.674499511719
			vertex 1.1480503082275 -2.7716386318207 56.674499511719
		endloop
	endfacet
	facet normal 0.63439350016813 -0.77301027609239 0
		outer loop
			vertex 1.6667107343674 -2.4944088459015 145.99949645996
			vertex 1.6667107343674 -2.4944088459015 56.674499511719
			vertex 2.1213202476501 -2.1213202476501 56.674499511719
		endloop
	endfacet
	facet normal 0.77301027609239 -0.63439350016813 0
		outer loop
			vertex 2.1213202476501 -2.1213202476501 145.99949645996
			vertex 2.1213202476501 -2.1213202476501 56.674499511719
			vertex 2.4944088459015 -1.6667107343674 56.674499511719
		endloop
	endfacet
	facet normal 0 -0 -1
		outer loop
			vertex 2.1213202476501 2.1213202476501 56.674499511719
			vertex 2.1213202476501 -2.1213202476501 56.674499511719
			vertex 1.6667107343674 -2.4944088459015 56.674499511719
		endloop
	endfacet
	facet normal 0 -0 -1
		outer loop
			vertex 2.4944088459015 1.6667107343674 56.674499511719
			vertex 2.4944088459015 -1.6667107343674 56.674499511719
			vertex 2.1213202476501 -2.1213202476501 56.674499511719
		endloop
	endfacet
	facet normal 0 -0 -1
		outer loop
			vertex 2.7716386318207 1.1480503082275 56.674499511719
			vertex 2.7716386318207 -1.1480503082275 56.674499511719
			vertex 2.4944088459015 -1.6667107343674 56.674499511719
		endloop
	endfacet
	facet normal 0 -0 -1
		outer loop
			vertex 2.9423558712006 0.58527094125748 56.674499511719
			vertex 2.9423558712006 -0.58527094125748 56.674499511719
			vertex 2.7716386318207 -1.1480503082275 56.674499511719
		endloop
	endfacet
	facet normal 0.88192125560357 -0.47139675318634 0
		outer loop
			vertex 2.4944088459015 -1.6667107343674 145.99949645996
			vertex 2.4944088459015 -1.6667107343674 56.674499511719
			vertex 2.7716386318207 -1.1480503082275 56.674499511719
		endloop
	endfacet
	facet normal 0.95694034290854 -0.29028465359725 0
		outer loop
			vertex 2.7716386318207 -1.1480503082275 145.99949645996
			vertex 2.7716386318207 -1.1480503082275 56.674499511719
			vertex 2.9423558712006 -0.58527094125748 56.674499511719
		endloop
	endfacet
	facet normal 0.99518473124162 -0.098017093935455 0
		outer loop
			vertex 2.9423558712006 -0.58527094125748 145.99949645996
			vertex 2.9423558712006 -0.58527094125748 56.674499511719
			vertex 3 0 56.674499511719
		endloop
	endfacet
	facet normal 0.098017093935455 -0.99518473124162 0
		outer loop
			vertex 0.58527094125748 -2.9423558712006 145.99949645996
			vertex 0 -3 145.99949645996
			vertex 0.58527094125748 -2.9423558712006 56.674499511719
		endloop
	endfacet
	facet normal 0.29028465359725 -0.95694034290854 0
		outer loop
			vertex 1.1480503082275 -2.7716386318207 145.99949645996
			vertex 0.58527094125748 -2.9423558712006 145.99949645996
			vertex 1.1480503082275 -2.7716386318207 56.674499511719
		endloop
	endfacet
	facet normal 0.47139675318634 -0.88192125560357 0
		outer loop
			vertex 1.6667107343674 -2.4944088459015 145.99949645996
			vertex 1.1480503082275 -2.7716386318207 145.99949645996
			vertex 1.6667107343674 -2.4944088459015 56.674499511719
		endloop
	endfacet
	facet normal 0 0 1
		outer loop
			vertex 0.58527094125748 2.9423558712006 145.99949645996
			vertex 0 -3 145.99949645996
			vertex 0.58527094125748 -2.9423558712006 145.99949645996
		endloop
	endfacet
	facet normal 0 0 1
		outer loop
			vertex 1.1480503082275 2.7716386318207 145.99949645996
			vertex 0.58527094125748 -2.9423558712006 145.99949645996
			vertex 1.1480503082275 -2.7716386318207 145.99949645996
		endloop
	endfacet
	facet normal 0 0 1
		outer loop
			vertex 1.6667107343674 2.4944088459015 145.99949645996
			vertex 1.1480503082275 -2.7716386318207 145.99949645996
			vertex 1.6667107343674 -2.4944088459015 145.99949645996
		endloop
	endfacet
	facet normal 0.63439350016813 -0.77301027609239 0
		outer loop
			vertex 2.1213202476501 -2.1213202476501 145.99949645996
			vertex 1.6667107343674 -2.4944088459015 145.99949645996
			vertex 2.1213202476501 -2.1213202476501 56.674499511719
		endloop
	endfacet
	facet normal 0.77301027609239 -0.63439350016813 0
		outer loop
			vertex 2.4944088459015 -1.6667107343674 145.99949645996
			vertex 2.1213202476501 -2.1213202476501 145.99949645996
			vertex 2.4944088459015 -1.6667107343674 56.674499511719
		endloop
	endfacet
	facet normal 0.88192125560357 -0.47139675318634 0
		outer loop
			vertex 2.7716386318207 -1.1480503082275 145.99949645996
			vertex 2.4944088459015 -1.6667107343674 145.99949645996
			vertex 2.7716386318207 -1.1480503082275 56.674499511719
		endloop
	endfacet
	facet normal 0.95694034290854 -0.29028465359725 0
		outer loop
			vertex 2.9423558712006 -0.58527094125748 145.99949645996
			vertex 2.7716386318207 -1.1480503082275 145.99949645996
			vertex 2.9423558712006 -0.58527094125748 56.674499511719
		endloop
	endfacet
	facet normal 0.99518473124162 -0.098017093935455 0
		outer loop
			vertex 3 0 145.99949645996
			vertex 2.9423558712006 -0.58527094125748 145.99949645996
			vertex 3 0 56.674499511719
		endloop
	endfacet
	facet normal 0 0 1
		outer loop
			vertex 2.1213202476501 2.1213202476501 145.99949645996
			vertex 1.6667107343674 -2.4944088459015 145.99949645996
			vertex 2.1213202476501 -2.1213202476501 145.99949645996
		endloop
	endfacet
	facet normal 0 0 1
		outer loop
			vertex 2.4944088459015 1.6667107343674 145.99949645996
			vertex 2.1213202476501 -2.1213202476501 145.99949645996
			vertex 2.4944088459015 -1.6667107343674 145.99949645996
		endloop
	endfacet
	facet normal 0 0 1
		outer loop
			vertex 2.7716386318207 1.1480503082275 145.99949645996
			vertex 2.4944088459015 -1.6667107343674 145.99949645996
			vertex 2.7716386318207 -1.1480503082275 145.99949645996
		endloop
	endfacet
	facet normal 0 0 1
		outer loop
			vertex 2.9423558712006 0.58527094125748 145.99949645996
			vertex 2.7716386318207 -1.1480503082275 145.99949645996
			vertex 2.9423558712006 -0.58527094125748 145.99949645996
		endloop
	endfacet
	facet normal -0 0 -1
		outer loop
			vertex 0.58527094125748 2.9423558712006 56.674499511719
			vertex 0 -3 56.674499511719
			vertex 0 3 56.674499511719
		endloop
	endfacet
	facet normal -0 0 -1
		outer loop
			vertex 1.1480503082275 2.7716386318207 56.674499511719
			vertex 0.58527094125748 -2.9423558712006 56.674499511719
			vertex 0.58527094125748 2.9423558712006 56.674499511719
		endloop
	endfacet
	facet normal -0 0 -1
		outer loop
			vertex 1.6667107343674 2.4944088459015 56.674499511719
			vertex 1.1480503082275 -2.7716386318207 56.674499511719
			vertex 1.1480503082275 2.7716386318207 56.674499511719
		endloop
	endfacet
	facet normal 0.098017093935455 0.99518473124162 0
		outer loop
			vertex 0.58527094125748 2.9423558712006 145.99949645996
			vertex 0.58527094125748 2.9423558712006 56.674499511719
			vertex 0 3 56.674499511719
		endloop
	endfacet
	facet normal 0.29028465359725 0.95694034290854 0
		outer loop
			vertex 1.1480503082275 2.7716386318207 145.99949645996
			vertex 1.1480503082275 2.7716386318207 56.674499511719
			vertex 0.58527094125748 2.9423558712006 56.674499511719
		endloop
	endfacet
	facet normal 0.47139675318634 0.88192125560357 0
		outer loop
			vertex 1.6667107343674 2.4944088459015 145.99949645996
			vertex 1.6667107343674 2.4944088459015 56.674499511719
			vertex 1.1480503082275 2.7716386318207 56.674499511719
		endloop
	endfacet
	facet normal -0 0 -1
		outer loop
			vertex 2.1213202476501 2.1213202476501 56.674499511719
			vertex 1.6667107343674 -2.4944088459015 56.674499511719
			vertex 1.6667107343674 2.4944088459015 56.674499511719
		endloop
	endfacet
	facet normal -0 0 -1
		outer loop
			vertex 2.4944088459015 1.6667107343674 56.674499511719
			vertex 2.1213202476501 -2.1213202476501 56.674499511719
			vertex 2.1213202476501 2.1213202476501 56.674499511719
		endloop
	endfacet
	facet normal -0 0 -1
		outer loop
			vertex 2.7716386318207 1.1480503082275 56.674499511719
			vertex 2.4944088459015 -1.6667107343674 56.674499511719
			vertex 2.4944088459015 1.6667107343674 56.674499511719
		endloop
	endfacet
	facet normal -0 0 -1
		outer loop
			vertex 3 0 56.674499511719
			vertex 2.9423558712006 -0.58527094125748 56.674499511719
			vertex 2.9423558712006 0.58527094125748 56.674499511719
		endloop
	endfacet
	facet normal -0 0 -1
		outer loop
			vertex 2.9423558712006 0.58527094125748 56.674499511719
			vertex 2.7716386318207 -1.1480503082275 56.674499511719
			vertex 2.7716386318207 1.1480503082275 56.674499511719
		endloop
	endfacet
	facet normal 0.99518473124162 0.098017093935455 0
		outer loop
			vertex 3 0 145.99949645996
			vertex 3 0 56.674499511719
			vertex 2.9423558712006 0.58527094125748 56.674499511719
		endloop
	endfacet
	facet normal 0.95694034290854 0.29028465359725 0
		outer loop
			vertex 2.9423558712006 0.58527094125748 145.99949645996
			vertex 2.9423558712006 0.58527094125748 56.674499511719
			vertex 2.7716386318207 1.1480503082275 56.674499511719
		endloop
	endfacet
	facet normal 0.88192125560357 0.47139675318634 0
		outer loop
			vertex 2.7716386318207 1.1480503082275 145.99949645996
			vertex 2.7716386318207 1.1480503082275 56.674499511719
			vertex 2.4944088459015 1.6667107343674 56.674499511719
		endloop
	endfacet
	facet normal 0.63439350016813 0.77301027609239 0
		outer loop
			vertex 2.1213202476501 2.1213202476501 145.99949645996
			vertex 2.1213202476501 2.1213202476501 56.674499511719
			vertex 1.6667107343674 2.4944088459015 56.674499511719
		endloop
	endfacet
	facet normal 0.77301027609239 0.63439350016813 0
		outer loop
			vertex 2.4944088459015 1.6667107343674 145.99949645996
			vertex 2.4944088459015 1.6667107343674 56.674499511719
			vertex 2.1213202476501 2.1213202476501 56.674499511719
		endloop
	endfacet
	facet normal 0 0 1
		outer loop
			vertex 0.58527094125748 2.9423558712006 145.99949645996
			vertex 0 3 145.99949645996
			vertex 0 -3 145.99949645996
		endloop
	endfacet
	facet normal 0 0 1
		outer loop
			vertex 1.1480503082275 2.7716386318207 145.99949645996
			vertex 0.58527094125748 2.9423558712006 145.99949645996
			vertex 0.58527094125748 -2.9423558712006 145.99949645996
		endloop
	endfacet
	facet normal 0 0 1
		outer loop
			vertex 1.6667107343674 2.4944088459015 145.99949645996
			vertex 1.1480503082275 2.7716386318207 145.99949645996
			vertex 1.1480503082275 -2.7716386318207 145.99949645996
		endloop
	endfacet
	facet normal 0.098017093935455 0.99518473124162 0
		outer loop
			vertex 0 3 145.99949645996
			vertex 0.58527094125748 2.9423558712006 145.99949645996
			vertex 0 3 56.674499511719
		endloop
	endfacet
	facet normal 0.29028465359725 0.95694034290854 0
		outer loop
			vertex 0.58527094125748 2.9423558712006 145.99949645996
			vertex 1.1480503082275 2.7716386318207 145.99949645996
			vertex 0.58527094125748 2.9423558712006 56.674499511719
		endloop
	endfacet
	facet normal 0.47139675318634 0.88192125560357 0
		outer loop
			vertex 1.1480503082275 2.7716386318207 145.99949645996
			vertex 1.6667107343674 2.4944088459015 145.99949645996
			vertex 1.1480503082275 2.7716386318207 56.674499511719
		endloop
	endfacet
	facet normal 0.99518473124162 0.098017093935455 0
		outer loop
			vertex 2.9423558712006 0.58527094125748 145.99949645996
			vertex 3 0 145.99949645996
			vertex 2.9423558712006 0.58527094125748 56.674499511719
		endloop
	endfacet
	facet normal 0.88192125560357 0.47139675318634 0
		outer loop
			vertex 2.4944088459015 1.6667107343674 145.99949645996
			vertex 2.7716386318207 1.1480503082275 145.99949645996
			vertex 2.4944088459015 1.6667107343674 56.674499511719
		endloop
	endfacet
	facet normal 0.95694034290854 0.29028465359725 0
		outer loop
			vertex 2.7716386318207 1.1480503082275 145.99949645996
			vertex 2.9423558712006 0.58527094125748 145.99949645996
			vertex 2.7716386318207 1.1480503082275 56.674499511719
		endloop
	endfacet
	facet normal 0 0 1
		outer loop
			vertex 2.1213202476501 2.1213202476501 145.99949645996
			vertex 1.6667107343674 2.4944088459015 145.99949645996
			vertex 1.6667107343674 -2.4944088459015 145.99949645996
		endloop
	endfacet
	facet normal 0 0 1
		outer loop
			vertex 2.4944088459015 1.6667107343674 145.99949645996
			vertex 2.1213202476501 2.1213202476501 145.99949645996
			vertex 2.1213202476501 -2.1213202476501 145.99949645996
		endloop
	endfacet
	facet normal 0 0 1
		outer loop
			vertex 2.7716386318207 1.1480503082275 145.99949645996
			vertex 2.4944088459015 1.6667107343674 145.99949645996
			vertex 2.4944088459015 -1.6667107343674 145.99949645996
		endloop
	endfacet
	facet normal 0 0 1
		outer loop
			vertex 3 0 145.99949645996
			vertex 2.9423558712006 0.58527094125748 145.99949645996
			vertex 2.9423558712006 -0.58527094125748 145.99949645996
		endloop
	endfacet
	facet normal 0 0 1
		outer loop
			vertex 2.9423558712006 0.58527094125748 145.99949645996
			vertex 2.7716386318207 1.1480503082275 145.99949645996
			vertex 2.7716386318207 -1.1480503082275 145.99949645996
		endloop
	endfacet
	facet normal 0.77301027609239 0.63439350016813 0
		outer loop
			vertex 2.1213202476501 2.1213202476501 145.99949645996
			vertex 2.4944088459015 1.6667107343674 145.99949645996
			vertex 2.1213202476501 2.1213202476501 56.674499511719
		endloop
	endfacet
	facet normal 0.63439350016813 0.77301027609239 0
		outer loop
			vertex 1.6667107343674 2.4944088459015 145.99949645996
			vertex 2.1213202476501 2.1213202476501 145.99949645996
			vertex 1.6667107343674 2.4944088459015 56.674499511719
		endloop
	endfacet
endsolid